%TF.GenerationSoftware,KiCad,Pcbnew,(6.0.8)*%
%TF.CreationDate,2023-09-30T23:17:07+09:00*%
%TF.ProjectId,AltairMD_V4,416c7461-6972-44d4-945f-56342e6b6963,rev?*%
%TF.SameCoordinates,PX6d3f490PY7a15e80*%
%TF.FileFunction,Copper,L2,Bot*%
%TF.FilePolarity,Positive*%
%FSLAX46Y46*%
G04 Gerber Fmt 4.6, Leading zero omitted, Abs format (unit mm)*
G04 Created by KiCad (PCBNEW (6.0.8)) date 2023-09-30 23:17:07*
%MOMM*%
%LPD*%
G01*
G04 APERTURE LIST*
%TA.AperFunction,ComponentPad*%
%ADD10O,1.600000X1.600000*%
%TD*%
%TA.AperFunction,ComponentPad*%
%ADD11C,1.600000*%
%TD*%
%TA.AperFunction,ComponentPad*%
%ADD12R,1.600000X1.600000*%
%TD*%
%TA.AperFunction,ComponentPad*%
%ADD13O,1.905000X2.000000*%
%TD*%
%TA.AperFunction,ComponentPad*%
%ADD14R,1.905000X2.000000*%
%TD*%
%TA.AperFunction,ViaPad*%
%ADD15C,0.800000*%
%TD*%
%TA.AperFunction,Conductor*%
%ADD16C,2.000000*%
%TD*%
%TA.AperFunction,Conductor*%
%ADD17C,1.800000*%
%TD*%
G04 APERTURE END LIST*
D10*
%TO.P,R13,2*%
%TO.N,Net-(MOSFET4-Pad1)*%
X33172400Y9575800D03*
D11*
%TO.P,R13,1*%
%TO.N,GND1*%
X23012400Y9575800D03*
%TD*%
D10*
%TO.P,R11,2*%
%TO.N,Net-(MOSFET3-Pad1)*%
X33172400Y14655800D03*
D11*
%TO.P,R11,1*%
%TO.N,M-*%
X23012400Y14655800D03*
%TD*%
D10*
%TO.P,D4,2,A*%
%TO.N,+12V*%
X9042400Y42595800D03*
D12*
%TO.P,D4,1,K*%
%TO.N,Net-(C1-Pad1)*%
X19202400Y42595800D03*
%TD*%
D10*
%TO.P,R6,2*%
%TO.N,Net-(MOSFET1-Pad1)*%
X33172400Y34975800D03*
D11*
%TO.P,R6,1*%
%TO.N,Net-(R6-Pad1)*%
X23012400Y34975800D03*
%TD*%
D13*
%TO.P,MOSFET4,3,3*%
%TO.N,GND1*%
X53492400Y19821800D03*
%TO.P,MOSFET4,2,2*%
%TO.N,M-*%
X56032400Y19821800D03*
D14*
%TO.P,MOSFET4,1,1*%
%TO.N,Net-(MOSFET4-Pad1)*%
X58572400Y19821800D03*
%TD*%
D10*
%TO.P,R12,2*%
%TO.N,Net-(MOSFET4-Pad1)*%
X33172400Y12115800D03*
D11*
%TO.P,R12,1*%
%TO.N,Net-(R12-Pad1)*%
X23012400Y12115800D03*
%TD*%
D13*
%TO.P,MOSFET2,3,3*%
%TO.N,GND1*%
X58572400Y34889800D03*
%TO.P,MOSFET2,2,2*%
%TO.N,M+*%
X56032400Y34889800D03*
D14*
%TO.P,MOSFET2,1,1*%
%TO.N,Net-(MOSFET2-Pad1)*%
X53492400Y34889800D03*
%TD*%
D11*
%TO.P,C2,2*%
%TO.N,M-*%
X25012400Y23545800D03*
D12*
%TO.P,C2,1*%
%TO.N,Net-(C2-Pad1)*%
X23012400Y23545800D03*
%TD*%
D13*
%TO.P,MOSFET3,3,3*%
%TO.N,M-*%
X38252400Y19821800D03*
%TO.P,MOSFET3,2,2*%
%TO.N,+24V*%
X40792400Y19821800D03*
D14*
%TO.P,MOSFET3,1,1*%
%TO.N,Net-(MOSFET3-Pad1)*%
X43332400Y19821800D03*
%TD*%
D10*
%TO.P,U4,8,VB*%
%TO.N,Net-(C2-Pad1)*%
X17942400Y19725800D03*
%TO.P,U4,7,HO*%
%TO.N,Net-(R10-Pad1)*%
X17942400Y17185800D03*
%TO.P,U4,6,VS*%
%TO.N,M-*%
X17942400Y14645800D03*
%TO.P,U4,5,LO*%
%TO.N,Net-(R12-Pad1)*%
X17942400Y12105800D03*
%TO.P,U4,4,COM*%
%TO.N,GND1*%
X10322400Y12105800D03*
%TO.P,U4,3,~{SD}*%
%TO.N,unconnected-(U4-Pad3)*%
X10322400Y14645800D03*
%TO.P,U4,2,IN*%
%TO.N,PWM2out*%
X10322400Y17185800D03*
D12*
%TO.P,U4,1,VCC*%
%TO.N,+12V*%
X10322400Y19725800D03*
%TD*%
D13*
%TO.P,MOSFET1,3,3*%
%TO.N,M+*%
X43332400Y34889800D03*
%TO.P,MOSFET1,2,2*%
%TO.N,+24V*%
X40792400Y34889800D03*
D14*
%TO.P,MOSFET1,1,1*%
%TO.N,Net-(MOSFET1-Pad1)*%
X38252400Y34889800D03*
%TD*%
D10*
%TO.P,U3,8,VB*%
%TO.N,Net-(C1-Pad1)*%
X17932400Y37515800D03*
%TO.P,U3,7,HO*%
%TO.N,Net-(R6-Pad1)*%
X17932400Y34975800D03*
%TO.P,U3,6,VS*%
%TO.N,M+*%
X17932400Y32435800D03*
%TO.P,U3,5,LO*%
%TO.N,Net-(R8-Pad1)*%
X17932400Y29895800D03*
%TO.P,U3,4,COM*%
%TO.N,GND1*%
X10312400Y29895800D03*
%TO.P,U3,3,~{SD}*%
%TO.N,unconnected-(U3-Pad3)*%
X10312400Y32435800D03*
%TO.P,U3,2,IN*%
%TO.N,PWM1out*%
X10312400Y34975800D03*
D12*
%TO.P,U3,1,VCC*%
%TO.N,+12V*%
X10312400Y37515800D03*
%TD*%
D10*
%TO.P,R10,2*%
%TO.N,Net-(MOSFET3-Pad1)*%
X33172400Y17195800D03*
D11*
%TO.P,R10,1*%
%TO.N,Net-(R10-Pad1)*%
X23012400Y17195800D03*
%TD*%
%TO.P,C1,2*%
%TO.N,M+*%
X27613288Y42595800D03*
D12*
%TO.P,C1,1*%
%TO.N,Net-(C1-Pad1)*%
X25613288Y42595800D03*
%TD*%
D10*
%TO.P,R8,2*%
%TO.N,Net-(MOSFET2-Pad1)*%
X33172400Y29895800D03*
D11*
%TO.P,R8,1*%
%TO.N,Net-(R8-Pad1)*%
X23012400Y29895800D03*
%TD*%
D10*
%TO.P,R9,2*%
%TO.N,Net-(MOSFET2-Pad1)*%
X33172400Y27355800D03*
D11*
%TO.P,R9,1*%
%TO.N,GND1*%
X23012400Y27355800D03*
%TD*%
D10*
%TO.P,D5,2,A*%
%TO.N,+12V*%
X7772400Y24815800D03*
D12*
%TO.P,D5,1,K*%
%TO.N,Net-(C2-Pad1)*%
X17932400Y24815800D03*
%TD*%
D10*
%TO.P,R7,2*%
%TO.N,Net-(MOSFET1-Pad1)*%
X33172400Y32435800D03*
D11*
%TO.P,R7,1*%
%TO.N,M+*%
X23012400Y32435800D03*
%TD*%
D15*
%TO.N,M-*%
X64897000Y24815800D03*
%TO.N,M+*%
X64546400Y40441800D03*
%TO.N,PWM1out*%
X2692400Y28625800D03*
%TO.N,PWM2out*%
X2692400Y23545800D03*
%TO.N,+12V*%
X2692400Y26085800D03*
%TD*%
D16*
%TO.N,+24V*%
X43357800Y24307800D02*
X44234100Y25184100D01*
X42377300Y24307800D02*
X43357800Y24307800D01*
X44234100Y25184100D02*
X45618400Y23799800D01*
X40792400Y28625800D02*
X44234100Y25184100D01*
D17*
%TO.N,M-*%
X63550800Y22910800D02*
X63017400Y22910800D01*
X66040000Y25400000D02*
X63550800Y22910800D01*
X60452000Y26416000D02*
X66040000Y26416000D01*
X66040000Y26416000D02*
X66040000Y25400000D01*
X56032400Y21996400D02*
X60452000Y26416000D01*
X56032400Y19821800D02*
X56032400Y21996400D01*
X58496200Y23545800D02*
X58166000Y23876000D01*
X66192400Y23545800D02*
X58496200Y23545800D01*
X59105800Y24815800D02*
X58674000Y24384000D01*
X64897000Y24815800D02*
X59105800Y24815800D01*
X57302400Y23012400D02*
X57302400Y22860000D01*
X60375800Y26085800D02*
X57302400Y23012400D01*
X66192400Y26085800D02*
X60375800Y26085800D01*
D16*
%TO.N,+24V*%
X46675100Y24759800D02*
X47812900Y23622000D01*
X44917300Y24759800D02*
X46675100Y24759800D01*
X47812900Y25654000D02*
X45095100Y25654000D01*
X48066900Y25654000D02*
X48066900Y27178000D01*
X48066900Y23622000D02*
X48066900Y25654000D01*
X45095100Y25654000D02*
X44917300Y25831800D01*
X47914500Y27330400D02*
X48066900Y27178000D01*
X48066900Y27178000D02*
X48066900Y28448000D01*
X44917300Y27330400D02*
X44917300Y24759800D01*
X44917300Y27330400D02*
X47660500Y27330400D01*
X44917300Y28625800D02*
X44917300Y27330400D01*
X47635100Y28625800D02*
X44917300Y28625800D01*
X48066900Y28448000D02*
X47889100Y28625800D01*
X47812900Y23368000D02*
X48066900Y23622000D01*
X44485500Y23368000D02*
X47558900Y23368000D01*
X44409300Y23291800D02*
X44485500Y23368000D01*
D17*
%TO.N,M+*%
X64546400Y40441800D02*
X66152400Y38835800D01*
X64387400Y42220800D02*
X64072400Y42535800D01*
X64387400Y40600800D02*
X64387400Y42220800D01*
X64072400Y42535800D02*
X58512400Y42535800D01*
X66082400Y42535800D02*
X64072400Y42535800D01*
X63672400Y39885800D02*
X64387400Y40600800D01*
X59842400Y39885800D02*
X63672400Y39885800D01*
X63662400Y41325800D02*
X64387400Y40600800D01*
X59842400Y39885800D02*
X59842400Y41325800D01*
X64387400Y40600800D02*
X64546400Y40441800D01*
X59842400Y38785800D02*
X59842400Y39885800D01*
X59842400Y41325800D02*
X63662400Y41325800D01*
X66152400Y42465800D02*
X66082400Y42535800D01*
X66152400Y38835800D02*
X66152400Y42465800D01*
X66102400Y38785800D02*
X66152400Y38835800D01*
X59842400Y38785800D02*
X66102400Y38785800D01*
X58512400Y42535800D02*
X57937400Y41960800D01*
D16*
%TO.N,+24V*%
X44917300Y24759800D02*
X44917300Y23799800D01*
X44917300Y23799800D02*
X44409300Y23291800D01*
D17*
%TO.N,M+*%
X44434400Y33873800D02*
X45872400Y32435800D01*
X45872400Y32435800D02*
X47396400Y32435800D01*
X43332400Y32435800D02*
X45872400Y32435800D01*
X44434400Y34889800D02*
X45958400Y34889800D01*
X44434400Y34889800D02*
X44434400Y33873800D01*
X43332400Y34889800D02*
X44434400Y34889800D01*
X45958400Y34889800D02*
X47904400Y32943800D01*
X47396400Y32435800D02*
X47904400Y32943800D01*
X47904400Y32943800D02*
X48412400Y32435800D01*
X44602400Y31165800D02*
X43332400Y32435800D01*
X54762400Y31165800D02*
X44602400Y31165800D01*
X43332400Y32435800D02*
X43332400Y34889800D01*
X54762400Y32435800D02*
X56032400Y33705800D01*
X48412400Y32435800D02*
X54762400Y32435800D01*
D16*
%TO.N,+24V*%
X40792400Y25831800D02*
X46126400Y25831800D01*
X42377300Y28625800D02*
X42377300Y24307800D01*
X42570400Y23291800D02*
X41046400Y23291800D01*
X42377300Y28625800D02*
X44917300Y28625800D01*
X44409300Y23291800D02*
X41361300Y23291800D01*
X42377300Y24307800D02*
X41361300Y23291800D01*
X40792400Y28625800D02*
X43586400Y28625800D01*
X44663300Y28625800D02*
X44917300Y28625800D01*
X40792400Y23545800D02*
X45872400Y28625800D01*
X44409300Y23799800D02*
X44917300Y23799800D01*
X41046400Y23291800D02*
X40792400Y23545800D01*
X40792400Y23545800D02*
X40792400Y19821800D01*
X40792400Y25831800D02*
X40792400Y23545800D01*
X40792400Y28625800D02*
X40792400Y25831800D01*
X40792400Y34889800D02*
X40792400Y28625800D01*
D17*
%TO.N,Net-(C1-Pad1)*%
X25613288Y42595800D02*
X19202400Y42595800D01*
X17932400Y41325800D02*
X17932400Y37515800D01*
X19202400Y42595800D02*
X17932400Y41325800D01*
%TO.N,M+*%
X57937400Y40690800D02*
X55397400Y40690800D01*
X56032400Y38785800D02*
X56032400Y36245800D01*
X54127400Y39420800D02*
X54762400Y38785800D01*
X57937400Y41960800D02*
X57937400Y40690800D01*
X59842400Y41325800D02*
X58572400Y42595800D01*
X55397400Y40690800D02*
X56032400Y40055800D01*
X52222400Y41325800D02*
X54127400Y39420800D01*
X28883288Y41325800D02*
X52222400Y41325800D01*
X57937400Y39420800D02*
X54127400Y39420800D01*
X58572400Y38785800D02*
X59842400Y38785800D01*
X27613288Y42595800D02*
X53492400Y42595800D01*
X56032400Y32435800D02*
X54762400Y31165800D01*
X56032400Y40055800D02*
X56032400Y38785800D01*
X55397400Y40690800D02*
X57302400Y42595800D01*
X57302400Y40055800D02*
X58572400Y40055800D01*
X25552400Y32435800D02*
X27613288Y34496688D01*
X57302400Y42595800D02*
X57937400Y41960800D01*
X58572400Y42595800D02*
X57302400Y42595800D01*
X23012400Y32435800D02*
X17932400Y32435800D01*
X56032400Y36245800D02*
X56032400Y34889800D01*
X59842400Y41325800D02*
X59207400Y40690800D01*
X56032400Y37515800D02*
X56032400Y36245800D01*
X56032400Y38785800D02*
X57302400Y38785800D01*
X54762400Y38785800D02*
X57302400Y38785800D01*
X23012400Y32435800D02*
X25552400Y32435800D01*
X27613288Y42595800D02*
X28883288Y41325800D01*
X54127400Y39420800D02*
X55397400Y40690800D01*
X27613288Y34496688D02*
X27613288Y42595800D01*
X57302400Y42595800D02*
X53492400Y42595800D01*
X54762400Y38785800D02*
X56032400Y37515800D01*
X58572400Y38785800D02*
X57302400Y38785800D01*
X59207400Y40690800D02*
X57937400Y40690800D01*
X56032400Y34889800D02*
X56032400Y32435800D01*
X53492400Y42595800D02*
X55397400Y40690800D01*
X57302400Y40055800D02*
X58572400Y38785800D01*
%TO.N,Net-(C2-Pad1)*%
X23012400Y23545800D02*
X19222400Y23545800D01*
X23012400Y23545800D02*
X19202400Y23545800D01*
X17942400Y24805800D02*
X17932400Y24815800D01*
X17942400Y22265800D02*
X17942400Y24805800D01*
X19202400Y23545800D02*
X17932400Y24815800D01*
X17942400Y19725800D02*
X17942400Y22265800D01*
X19222400Y23545800D02*
X17942400Y22265800D01*
%TO.N,M-*%
X38252400Y19821800D02*
X30718400Y19821800D01*
X30718400Y7121800D02*
X30632400Y7035800D01*
X30336399Y6061801D02*
X28727400Y7670800D01*
X63017400Y22910800D02*
X64287400Y21640800D01*
X26822400Y10845800D02*
X26822400Y8305800D01*
X63017400Y22910800D02*
X63017400Y12750800D01*
X29362400Y9575800D02*
X29362400Y8305800D01*
X66192400Y14655800D02*
X57598401Y6061801D01*
X61112400Y22275800D02*
X62382400Y21005800D01*
X56032400Y21005800D02*
X57302400Y22275800D01*
X26736400Y19821800D02*
X25552400Y21005800D01*
X17942400Y14645800D02*
X23002400Y14645800D01*
X25552400Y13385800D02*
X28727400Y10210800D01*
X64287400Y21640800D02*
X65557400Y22910800D01*
X28178400Y19821800D02*
X26736400Y19821800D01*
X65557400Y22910800D02*
X65557400Y15290800D01*
X26526399Y6061801D02*
X25552400Y7035800D01*
X25552400Y14655800D02*
X25552400Y15925800D01*
X25552400Y15925800D02*
X25552400Y21005800D01*
X25552400Y7035800D02*
X25552400Y13385800D01*
X29448400Y19821800D02*
X28178400Y19821800D01*
X65557400Y22910800D02*
X66192400Y23545800D01*
X30336399Y6061801D02*
X26526399Y6061801D01*
X57006399Y6061801D02*
X56667400Y6400800D01*
X57598401Y6061801D02*
X53492400Y6061801D01*
X26822400Y8305800D02*
X28092400Y7035800D01*
X62382400Y12115800D02*
X59842400Y9575800D01*
X62382400Y19735800D02*
X64287400Y21640800D01*
X29448400Y19821800D02*
X29448400Y9661800D01*
X64287400Y14020800D02*
X62382400Y12115800D01*
X30718400Y12201800D02*
X25552400Y7035800D01*
X62382400Y19735800D02*
X62382400Y12115800D01*
X64287400Y21640800D02*
X64287400Y14020800D01*
X30718400Y19821800D02*
X30718400Y7121800D01*
X28178400Y10759800D02*
X28727400Y10210800D01*
X30718400Y19821800D02*
X29448400Y19821800D01*
X23002400Y14645800D02*
X23012400Y14655800D01*
X25552400Y21005800D02*
X25552400Y23005800D01*
X66192400Y23545800D02*
X66192400Y26085800D01*
X28178400Y19821800D02*
X28178400Y10759800D01*
X30718400Y19821800D02*
X30718400Y12201800D01*
X66192400Y14655800D02*
X65557400Y14020800D01*
X26736400Y19821800D02*
X26736400Y10931800D01*
X25552400Y13385800D02*
X25552400Y14655800D01*
X65557400Y15290800D02*
X59842400Y9575800D01*
X25552400Y14655800D02*
X30632400Y9575800D01*
X57302400Y22275800D02*
X61112400Y22275800D01*
X66192400Y26085800D02*
X64922400Y24815800D01*
X24282400Y14655800D02*
X25552400Y15925800D01*
X28727400Y7670800D02*
X29362400Y7035800D01*
X29448400Y9661800D02*
X29362400Y9575800D01*
X56032400Y19821800D02*
X56032400Y21005800D01*
X66192400Y23545800D02*
X66192400Y14655800D01*
X62382400Y21005800D02*
X62382400Y19735800D01*
X24282400Y14655800D02*
X25552400Y13385800D01*
X28727400Y10210800D02*
X29362400Y9575800D01*
X54762400Y7035800D02*
X62382400Y14655800D01*
X26736400Y10931800D02*
X26822400Y10845800D01*
X29362400Y8305800D02*
X26822400Y10845800D01*
X57598401Y6061801D02*
X57006399Y6061801D01*
X63017400Y22910800D02*
X65557400Y22910800D01*
X29362400Y7035800D02*
X30632400Y7035800D01*
X64922400Y24815800D02*
X64897000Y24815800D01*
X65557400Y14020800D02*
X64287400Y14020800D01*
X56328401Y6061801D02*
X30336399Y6061801D01*
X63017400Y12750800D02*
X62382400Y12115800D01*
X30632400Y9575800D02*
X30632400Y7035800D01*
X25552400Y23005800D02*
X25012400Y23545800D01*
X23012400Y14655800D02*
X24282400Y14655800D01*
X59842400Y9575800D02*
X56328401Y6061801D01*
X30632400Y7035800D02*
X54762400Y7035800D01*
%TO.N,PWM1out*%
X12852400Y42595800D02*
X10312400Y45135800D01*
X11582400Y34975800D02*
X12852400Y36245800D01*
X2692400Y41956433D02*
X2692400Y28625800D01*
X10312400Y45135800D02*
X5871767Y45135800D01*
X5871767Y45135800D02*
X2692400Y41956433D01*
X10312400Y34975800D02*
X11582400Y34975800D01*
X12852400Y36245800D02*
X12852400Y42595800D01*
%TO.N,PWM2out*%
X6502400Y17195800D02*
X2692400Y21005800D01*
X2692400Y21005800D02*
X2692400Y22275800D01*
X2692400Y22275800D02*
X2692400Y23545800D01*
X10322400Y17185800D02*
X6512400Y17185800D01*
X6512400Y17185800D02*
X6502400Y17195800D01*
%TO.N,+12V*%
X10312400Y21005800D02*
X10312400Y19735800D01*
X10312400Y21005800D02*
X7772400Y23545800D01*
X7772400Y23545800D02*
X7772400Y24815800D01*
X7772400Y36319303D02*
X7772400Y26085800D01*
X9042400Y37589303D02*
X8968897Y37515800D01*
X10312400Y19735800D02*
X10322400Y19725800D01*
X9042400Y42595800D02*
X9042400Y37589303D01*
X7772400Y26085800D02*
X2692400Y26085800D01*
X8968897Y37515800D02*
X7772400Y36319303D01*
X10312400Y37515800D02*
X8968897Y37515800D01*
X7772400Y26085800D02*
X7772400Y24815800D01*
%TO.N,GND1*%
X14122400Y8305800D02*
X21742400Y8305800D01*
X58572400Y31165800D02*
X53492400Y26085800D01*
X15392400Y10845800D02*
X16662400Y9575800D01*
X15392400Y27355800D02*
X14122400Y27355800D01*
X14122400Y10845800D02*
X15392400Y9575800D01*
X23012400Y9575800D02*
X15392400Y9575800D01*
X21742400Y8305800D02*
X23012400Y9575800D01*
X58572400Y34889800D02*
X58572400Y31165800D01*
X14122400Y27355800D02*
X14122400Y10845800D01*
X11572400Y12105800D02*
X12852400Y13385800D01*
X23012400Y27355800D02*
X15392400Y27355800D01*
X12852400Y9575800D02*
X14122400Y8305800D01*
X15392400Y9575800D02*
X12852400Y9575800D01*
X10322400Y12105800D02*
X11572400Y12105800D01*
X14122400Y27355800D02*
X12852400Y27355800D01*
X15392400Y12115800D02*
X15392400Y10845800D01*
X53492400Y26085800D02*
X53492400Y19821800D01*
X15392400Y12115800D02*
X15392400Y27355800D01*
X15392400Y9575800D02*
X15392400Y12115800D01*
X12852400Y9575800D02*
X12852400Y13385800D01*
X10322400Y12105800D02*
X12852400Y9575800D01*
X12852400Y13385800D02*
X12852400Y27355800D01*
X12852400Y27355800D02*
X10312400Y29895800D01*
%TO.N,Net-(R6-Pad1)*%
X23012400Y34975800D02*
X17932400Y34975800D01*
%TO.N,Net-(MOSFET1-Pad1)*%
X33172400Y32435800D02*
X33172400Y34975800D01*
X33172400Y34975800D02*
X38166400Y34975800D01*
X38166400Y34975800D02*
X38252400Y34889800D01*
%TO.N,Net-(R8-Pad1)*%
X17932400Y29895800D02*
X23012400Y29895800D01*
%TO.N,Net-(MOSFET2-Pad1)*%
X33172400Y29895800D02*
X33172400Y27355800D01*
X53492400Y36245800D02*
X53492400Y34889800D01*
X31902400Y38785800D02*
X50952400Y38785800D01*
X50952400Y38785800D02*
X53492400Y36245800D01*
X30632400Y31165800D02*
X30632400Y37515800D01*
X33172400Y29895800D02*
X31902400Y29895800D01*
X31902400Y29895800D02*
X30632400Y31165800D01*
X30632400Y37515800D02*
X31902400Y38785800D01*
%TO.N,Net-(R10-Pad1)*%
X23012400Y17195800D02*
X17952400Y17195800D01*
X17952400Y17195800D02*
X17942400Y17185800D01*
%TO.N,Net-(MOSFET3-Pad1)*%
X42062400Y17195800D02*
X43332400Y18465800D01*
X33172400Y17195800D02*
X42062400Y17195800D01*
X33172400Y14655800D02*
X33172400Y17195800D01*
X43332400Y18465800D02*
X43332400Y19821800D01*
%TO.N,Net-(R12-Pad1)*%
X17942400Y12105800D02*
X23002400Y12105800D01*
X23002400Y12105800D02*
X23012400Y12115800D01*
%TO.N,Net-(MOSFET4-Pad1)*%
X56032400Y12115800D02*
X58572400Y14655800D01*
X33172400Y12115800D02*
X33172400Y9575800D01*
X33172400Y12115800D02*
X56032400Y12115800D01*
X58572400Y14655800D02*
X58572400Y19821800D01*
%TD*%
%TA.AperFunction,Conductor*%
%TO.N,GND1*%
G36*
X69639221Y47477498D02*
G01*
X69685714Y47423842D01*
X69697100Y47371500D01*
X69697100Y811800D01*
X69677098Y743679D01*
X69623442Y697186D01*
X69571100Y685800D01*
X56440697Y685800D01*
X56372576Y705802D01*
X56326083Y759458D01*
X56315979Y829732D01*
X56345473Y894312D01*
X56405199Y932696D01*
X56416115Y935379D01*
X56614147Y974770D01*
X56614153Y974772D01*
X56618197Y975576D01*
X56622106Y976903D01*
X56622110Y976904D01*
X56894639Y1069415D01*
X56894640Y1069416D01*
X56898545Y1070741D01*
X57024087Y1132652D01*
X57160369Y1199858D01*
X57160374Y1199861D01*
X57164073Y1201685D01*
X57222995Y1241056D01*
X57406807Y1363874D01*
X57406812Y1363878D01*
X57410238Y1366167D01*
X57413332Y1368881D01*
X57413338Y1368885D01*
X57629738Y1558664D01*
X57632827Y1561373D01*
X57635536Y1564462D01*
X57825315Y1780862D01*
X57825319Y1780868D01*
X57828033Y1783962D01*
X57992515Y2030127D01*
X58123459Y2295655D01*
X58218624Y2576003D01*
X58276383Y2866374D01*
X58295746Y3161800D01*
X58276383Y3457226D01*
X58218624Y3747597D01*
X58123459Y4027945D01*
X57992515Y4293473D01*
X57854763Y4499634D01*
X57833548Y4567387D01*
X57852331Y4635854D01*
X57905148Y4683297D01*
X57926170Y4691140D01*
X57960992Y4700699D01*
X57962580Y4701123D01*
X58067941Y4728469D01*
X58072810Y4730663D01*
X58077133Y4732185D01*
X58081367Y4733743D01*
X58086512Y4735155D01*
X58185070Y4781218D01*
X58186664Y4781950D01*
X58189201Y4783093D01*
X58285881Y4826644D01*
X58290308Y4829624D01*
X58294286Y4831838D01*
X58298228Y4834105D01*
X58303059Y4836363D01*
X58307439Y4839402D01*
X58307445Y4839405D01*
X58392419Y4898355D01*
X58393873Y4899349D01*
X58479735Y4957154D01*
X58484163Y4960135D01*
X58488027Y4963821D01*
X58492181Y4967161D01*
X58492378Y4966916D01*
X58492992Y4967417D01*
X58492800Y4967659D01*
X58496045Y4970242D01*
X58499458Y4972610D01*
X58506951Y4979428D01*
X58516911Y4988490D01*
X58516923Y4988502D01*
X58518016Y4989496D01*
X58580636Y5052116D01*
X58582759Y5054191D01*
X58586051Y5057332D01*
X58657119Y5125127D01*
X58661723Y5131315D01*
X58673717Y5145197D01*
X66539635Y13011115D01*
X66541758Y13013190D01*
X66576312Y13046153D01*
X66616118Y13084126D01*
X66620722Y13090314D01*
X66632716Y13104196D01*
X67149684Y13621164D01*
X67156199Y13627235D01*
X67201786Y13666793D01*
X67201788Y13666795D01*
X67205819Y13670293D01*
X67209202Y13674419D01*
X67209206Y13674423D01*
X67254932Y13730191D01*
X67274816Y13754440D01*
X67275857Y13755692D01*
X67346086Y13838945D01*
X67348789Y13843543D01*
X67351423Y13847263D01*
X67354002Y13851016D01*
X67357378Y13855133D01*
X67360010Y13859757D01*
X67360015Y13859764D01*
X67411208Y13949698D01*
X67412089Y13951221D01*
X67464515Y14040400D01*
X67464516Y14040403D01*
X67467223Y14045007D01*
X67469116Y14050004D01*
X67471108Y14054161D01*
X67472988Y14058229D01*
X67475627Y14062866D01*
X67512748Y14165134D01*
X67513360Y14166784D01*
X67526652Y14201867D01*
X67551910Y14268534D01*
X67552933Y14273774D01*
X67554176Y14278135D01*
X67555364Y14282539D01*
X67557184Y14287553D01*
X67576537Y14394574D01*
X67576862Y14396302D01*
X67596702Y14497896D01*
X67596703Y14497904D01*
X67597724Y14503133D01*
X67597849Y14508463D01*
X67598426Y14513773D01*
X67598803Y14513732D01*
X67598882Y14514510D01*
X67598510Y14514552D01*
X67598979Y14518685D01*
X67599718Y14522769D01*
X67600900Y14547832D01*
X67600900Y14636449D01*
X67600935Y14639399D01*
X67603229Y14736761D01*
X67603355Y14742098D01*
X67602236Y14749723D01*
X67600900Y14768020D01*
X67600900Y23444314D01*
X67601992Y23460870D01*
X67603723Y23473928D01*
X67603723Y23473931D01*
X67604423Y23479211D01*
X67604063Y23488796D01*
X67601698Y23551792D01*
X67601644Y23559487D01*
X67603229Y23626760D01*
X67603355Y23632098D01*
X67602236Y23639722D01*
X67600900Y23658019D01*
X67600900Y25984314D01*
X67601992Y26000870D01*
X67603723Y26013928D01*
X67603723Y26013931D01*
X67604423Y26019211D01*
X67602532Y26069567D01*
X67601698Y26091792D01*
X67601644Y26099487D01*
X67603229Y26166760D01*
X67603355Y26172098D01*
X67598068Y26208119D01*
X67596821Y26221690D01*
X67595655Y26252743D01*
X67595455Y26258074D01*
X67590537Y26281513D01*
X67590187Y26283183D01*
X67587952Y26298408D01*
X67586234Y26318662D01*
X67586234Y26318665D01*
X67585783Y26323975D01*
X67576631Y26359236D01*
X67573930Y26372576D01*
X67569420Y26403307D01*
X67569418Y26403314D01*
X67568643Y26408596D01*
X67557361Y26443215D01*
X67553848Y26456372D01*
X67547465Y26486793D01*
X67547465Y26486794D01*
X67546370Y26492011D01*
X67536944Y26515879D01*
X67532180Y26530495D01*
X67525732Y26555340D01*
X67510779Y26588536D01*
X67505864Y26601241D01*
X67496235Y26630787D01*
X67496230Y26630798D01*
X67494580Y26635862D01*
X67477625Y26668089D01*
X67471947Y26680463D01*
X67466287Y26694794D01*
X67458571Y26714333D01*
X67445256Y26736275D01*
X67438097Y26749884D01*
X67429750Y26768413D01*
X67429747Y26768418D01*
X67427557Y26773280D01*
X67407228Y26803476D01*
X67400239Y26815176D01*
X67389965Y26834704D01*
X67379515Y26861717D01*
X67374672Y26880377D01*
X67373332Y26885540D01*
X67339095Y26961543D01*
X67336785Y26967013D01*
X67308134Y27039563D01*
X67308133Y27039566D01*
X67306171Y27044533D01*
X67292856Y27066475D01*
X67285697Y27080084D01*
X67277349Y27098615D01*
X67277347Y27098619D01*
X67275157Y27103480D01*
X67269114Y27112457D01*
X67228603Y27172630D01*
X67225432Y27177588D01*
X67182168Y27248883D01*
X67165352Y27268261D01*
X67155996Y27280477D01*
X67144648Y27297334D01*
X67144642Y27297342D01*
X67141666Y27301762D01*
X67137987Y27305619D01*
X67137981Y27305626D01*
X67084128Y27362078D01*
X67080131Y27366470D01*
X67078273Y27368612D01*
X67029864Y27424398D01*
X67029007Y27425386D01*
X67029005Y27425388D01*
X67025507Y27429419D01*
X67005664Y27445689D01*
X66994384Y27456153D01*
X66980364Y27470850D01*
X66980363Y27470851D01*
X66976674Y27474718D01*
X66909778Y27524490D01*
X66905127Y27528124D01*
X66844795Y27577594D01*
X66844789Y27577598D01*
X66840667Y27580978D01*
X66836033Y27583616D01*
X66836024Y27583622D01*
X66818371Y27593670D01*
X66805499Y27602076D01*
X66784900Y27617402D01*
X66710585Y27655185D01*
X66705377Y27657990D01*
X66637583Y27696582D01*
X66637570Y27696588D01*
X66632934Y27699227D01*
X66608807Y27707985D01*
X66594699Y27714105D01*
X66590372Y27716305D01*
X66571828Y27725733D01*
X66566737Y27727314D01*
X66566734Y27727315D01*
X66507794Y27745616D01*
X66492209Y27750455D01*
X66486602Y27752343D01*
X66455467Y27763644D01*
X66413262Y27778964D01*
X66413258Y27778965D01*
X66408247Y27780784D01*
X66403000Y27781733D01*
X66402992Y27781735D01*
X66382997Y27785350D01*
X66368064Y27789004D01*
X66343548Y27796616D01*
X66260902Y27807570D01*
X66255036Y27808489D01*
X66177115Y27822580D01*
X66177107Y27822581D01*
X66173031Y27823318D01*
X66154641Y27824185D01*
X66149456Y27824430D01*
X66149449Y27824430D01*
X66147968Y27824500D01*
X66141486Y27824500D01*
X66124930Y27825592D01*
X66111872Y27827323D01*
X66111869Y27827323D01*
X66106589Y27828023D01*
X66101260Y27827823D01*
X66101259Y27827823D01*
X66015125Y27824589D01*
X66010398Y27824500D01*
X60506681Y27824500D01*
X60497782Y27824815D01*
X60437591Y27829077D01*
X60437588Y27829077D01*
X60432263Y27829454D01*
X60379561Y27824240D01*
X60324021Y27818746D01*
X60322270Y27818585D01*
X60278048Y27814832D01*
X60213825Y27809383D01*
X60208655Y27808041D01*
X60204174Y27807275D01*
X60199702Y27806446D01*
X60194393Y27805921D01*
X60089442Y27777111D01*
X60087820Y27776678D01*
X59982460Y27749332D01*
X59977591Y27747138D01*
X59973268Y27745616D01*
X59969034Y27744058D01*
X59963889Y27742646D01*
X59870989Y27699227D01*
X59865336Y27696585D01*
X59863741Y27695853D01*
X59764520Y27651157D01*
X59760093Y27648177D01*
X59756115Y27645963D01*
X59752173Y27643696D01*
X59747342Y27641438D01*
X59742962Y27638399D01*
X59742956Y27638396D01*
X59657982Y27579446D01*
X59656528Y27578452D01*
X59639639Y27567082D01*
X59566238Y27517666D01*
X59562374Y27513980D01*
X59558220Y27510640D01*
X59558023Y27510885D01*
X59557409Y27510384D01*
X59557601Y27510142D01*
X59554356Y27507559D01*
X59550943Y27505191D01*
X59547873Y27502398D01*
X59547871Y27502396D01*
X59533490Y27489311D01*
X59533478Y27489299D01*
X59532385Y27488305D01*
X59469765Y27425685D01*
X59467642Y27423610D01*
X59393282Y27352674D01*
X59390099Y27348396D01*
X59388678Y27346486D01*
X59376684Y27332604D01*
X55075116Y23031036D01*
X55068601Y23024965D01*
X55025037Y22987162D01*
X55018981Y22981907D01*
X55015598Y22977781D01*
X55015594Y22977777D01*
X54997385Y22955569D01*
X54949984Y22897760D01*
X54948943Y22896508D01*
X54909802Y22850108D01*
X54902239Y22841142D01*
X54878714Y22813255D01*
X54876011Y22808657D01*
X54873377Y22804937D01*
X54870798Y22801184D01*
X54867422Y22797067D01*
X54864790Y22792443D01*
X54864785Y22792436D01*
X54813592Y22702502D01*
X54812740Y22701029D01*
X54780391Y22646001D01*
X54761198Y22613352D01*
X54757577Y22607193D01*
X54755684Y22602196D01*
X54753692Y22598039D01*
X54751812Y22593971D01*
X54749173Y22589334D01*
X54739049Y22561443D01*
X54712052Y22487066D01*
X54711440Y22485416D01*
X54672890Y22383666D01*
X54671867Y22378426D01*
X54670624Y22374065D01*
X54669436Y22369661D01*
X54667616Y22364647D01*
X54666667Y22359398D01*
X54666666Y22359395D01*
X54648263Y22257626D01*
X54647938Y22255898D01*
X54628098Y22154304D01*
X54628097Y22154296D01*
X54627076Y22149067D01*
X54626951Y22143737D01*
X54626374Y22138427D01*
X54625997Y22138468D01*
X54625918Y22137690D01*
X54626290Y22137648D01*
X54625822Y22133520D01*
X54625082Y22129431D01*
X54623900Y22104368D01*
X54623900Y22015769D01*
X54623865Y22012801D01*
X54621445Y21910102D01*
X54622221Y21904816D01*
X54622564Y21902477D01*
X54623900Y21884180D01*
X54623900Y21096897D01*
X54603898Y21028776D01*
X54550242Y20982283D01*
X54479968Y20972179D01*
X54419808Y20998015D01*
X54307456Y21086745D01*
X54298869Y21092450D01*
X54097678Y21203514D01*
X54088266Y21207744D01*
X53871632Y21284459D01*
X53861661Y21287093D01*
X53764237Y21304447D01*
X53750940Y21302987D01*
X53746400Y21288430D01*
X53746400Y18353704D01*
X53750318Y18340360D01*
X53764594Y18338373D01*
X53826915Y18347910D01*
X53836943Y18350299D01*
X54055388Y18421698D01*
X54064897Y18425695D01*
X54268744Y18531811D01*
X54277469Y18537305D01*
X54461252Y18675293D01*
X54468959Y18682136D01*
X54627739Y18848291D01*
X54634223Y18856298D01*
X54656637Y18889156D01*
X54711548Y18934159D01*
X54782072Y18942332D01*
X54845820Y18911078D01*
X54866516Y18886596D01*
X54870898Y18879823D01*
X55032586Y18702130D01*
X55063111Y18678023D01*
X55217070Y18556433D01*
X55217075Y18556430D01*
X55221124Y18553232D01*
X55225640Y18550739D01*
X55225643Y18550737D01*
X55426926Y18439623D01*
X55426930Y18439621D01*
X55431450Y18437126D01*
X55436319Y18435402D01*
X55436323Y18435400D01*
X55653040Y18358656D01*
X55653044Y18358655D01*
X55657915Y18356930D01*
X55663008Y18356023D01*
X55663011Y18356022D01*
X55889348Y18315705D01*
X55889354Y18315704D01*
X55894437Y18314799D01*
X55981800Y18313732D01*
X56129493Y18311927D01*
X56129495Y18311927D01*
X56134663Y18311864D01*
X56372144Y18348204D01*
X56484397Y18384894D01*
X56595583Y18421234D01*
X56595589Y18421237D01*
X56600501Y18422842D01*
X56605087Y18425229D01*
X56605091Y18425231D01*
X56809007Y18531384D01*
X56813600Y18533775D01*
X56849306Y18560584D01*
X56962247Y18645382D01*
X57028732Y18670288D01*
X57098128Y18655296D01*
X57148401Y18605165D01*
X57163900Y18544622D01*
X57163900Y15291409D01*
X57143898Y15223288D01*
X57126995Y15202314D01*
X55485885Y13561205D01*
X55423573Y13527179D01*
X55396790Y13524300D01*
X34332366Y13524300D01*
X34264245Y13544302D01*
X34217752Y13597958D01*
X34207648Y13668232D01*
X34234932Y13730191D01*
X34333994Y13851005D01*
X34333998Y13851011D01*
X34337378Y13855133D01*
X34455627Y14062866D01*
X34537184Y14287553D01*
X34556695Y14395449D01*
X34578980Y14518685D01*
X34578981Y14518693D01*
X34579718Y14522769D01*
X34580900Y14547832D01*
X34580900Y15661300D01*
X34600902Y15729421D01*
X34654558Y15775914D01*
X34706900Y15787300D01*
X42007719Y15787300D01*
X42016618Y15786985D01*
X42076809Y15782723D01*
X42076812Y15782723D01*
X42082137Y15782346D01*
X42134839Y15787560D01*
X42190379Y15793054D01*
X42192130Y15793215D01*
X42236352Y15796968D01*
X42300575Y15802417D01*
X42305745Y15803759D01*
X42310226Y15804525D01*
X42314698Y15805354D01*
X42320007Y15805879D01*
X42424958Y15834689D01*
X42426580Y15835122D01*
X42531940Y15862468D01*
X42536809Y15864662D01*
X42541132Y15866184D01*
X42545366Y15867742D01*
X42550511Y15869154D01*
X42649069Y15915217D01*
X42650663Y15915949D01*
X42749880Y15960643D01*
X42754307Y15963623D01*
X42758285Y15965837D01*
X42762227Y15968104D01*
X42767058Y15970362D01*
X42771438Y15973401D01*
X42771444Y15973404D01*
X42856418Y16032354D01*
X42857872Y16033348D01*
X42910763Y16068956D01*
X42948162Y16094134D01*
X42952026Y16097820D01*
X42956180Y16101160D01*
X42956377Y16100915D01*
X42956991Y16101416D01*
X42956799Y16101658D01*
X42960044Y16104241D01*
X42963457Y16106609D01*
X42966529Y16109404D01*
X42980910Y16122489D01*
X42980922Y16122501D01*
X42982015Y16123495D01*
X43044635Y16186115D01*
X43046758Y16188190D01*
X43095234Y16234434D01*
X43121118Y16259126D01*
X43125722Y16265314D01*
X43137716Y16279196D01*
X44289684Y17431164D01*
X44296199Y17437235D01*
X44341786Y17476793D01*
X44341788Y17476795D01*
X44345819Y17480293D01*
X44414815Y17564440D01*
X44415887Y17565729D01*
X44422077Y17573066D01*
X44486086Y17648944D01*
X44488794Y17653551D01*
X44491380Y17657203D01*
X44493995Y17661007D01*
X44497378Y17665133D01*
X44500014Y17669763D01*
X44500017Y17669768D01*
X44551188Y17759662D01*
X44552068Y17761183D01*
X44604519Y17850407D01*
X44604520Y17850408D01*
X44607223Y17855007D01*
X44609114Y17859998D01*
X44611096Y17864135D01*
X44612988Y17868229D01*
X44615627Y17872866D01*
X44652748Y17975134D01*
X44653360Y17976784D01*
X44670761Y18022713D01*
X44691910Y18078534D01*
X44692933Y18083774D01*
X44694176Y18088135D01*
X44695364Y18092539D01*
X44697184Y18097553D01*
X44712330Y18181307D01*
X44716537Y18204574D01*
X44716862Y18206302D01*
X44736702Y18307896D01*
X44736703Y18307904D01*
X44737724Y18313133D01*
X44737849Y18318463D01*
X44738426Y18323773D01*
X44738803Y18323732D01*
X44738882Y18324510D01*
X44738510Y18324552D01*
X44738978Y18328680D01*
X44739718Y18332769D01*
X44740705Y18353704D01*
X44740830Y18356344D01*
X44740830Y18356351D01*
X44740900Y18357832D01*
X44740900Y18446431D01*
X44740935Y18449399D01*
X44741633Y18479027D01*
X44743355Y18552098D01*
X44742580Y18557379D01*
X44742296Y18562022D01*
X44750079Y18613943D01*
X44783873Y18704089D01*
X44783873Y18704091D01*
X44786645Y18711484D01*
X44793400Y18773666D01*
X44793400Y19551689D01*
X52045198Y19551689D01*
X52046151Y19540096D01*
X52047833Y19529934D01*
X52103822Y19307029D01*
X52107141Y19297281D01*
X52198785Y19086511D01*
X52203651Y19077436D01*
X52328485Y18884473D01*
X52334778Y18876302D01*
X52489450Y18706320D01*
X52496983Y18699294D01*
X52677344Y18556855D01*
X52685931Y18551150D01*
X52887122Y18440086D01*
X52896534Y18435856D01*
X53113168Y18359141D01*
X53123139Y18356507D01*
X53220563Y18339153D01*
X53233860Y18340613D01*
X53238400Y18355170D01*
X53238400Y19549685D01*
X53233925Y19564924D01*
X53232535Y19566129D01*
X53224852Y19567800D01*
X52061988Y19567800D01*
X52047259Y19563475D01*
X52045198Y19551689D01*
X44793400Y19551689D01*
X44793400Y20093813D01*
X52047499Y20093813D01*
X52050147Y20079192D01*
X52062524Y20075800D01*
X53220285Y20075800D01*
X53235524Y20080275D01*
X53236729Y20081665D01*
X53238400Y20089348D01*
X53238400Y21289896D01*
X53234482Y21303240D01*
X53220206Y21305227D01*
X53157885Y21295690D01*
X53147857Y21293301D01*
X52929412Y21221902D01*
X52919903Y21217905D01*
X52716056Y21111789D01*
X52707331Y21106295D01*
X52523548Y20968307D01*
X52515841Y20961464D01*
X52357061Y20795309D01*
X52350574Y20787299D01*
X52221070Y20597453D01*
X52215971Y20588479D01*
X52119213Y20380031D01*
X52115650Y20370344D01*
X52054235Y20148892D01*
X52052304Y20138770D01*
X52047499Y20093813D01*
X44793400Y20093813D01*
X44793400Y20869934D01*
X44786645Y20932116D01*
X44735515Y21068505D01*
X44648161Y21185061D01*
X44531605Y21272415D01*
X44395216Y21323545D01*
X44333034Y21330300D01*
X42426900Y21330300D01*
X42358779Y21350302D01*
X42312286Y21403958D01*
X42300900Y21456300D01*
X42300900Y21657300D01*
X42320902Y21725421D01*
X42374558Y21771914D01*
X42426900Y21783300D01*
X44385284Y21783300D01*
X44388802Y21783251D01*
X44483450Y21780607D01*
X44483453Y21780607D01*
X44488505Y21780466D01*
X44566398Y21790859D01*
X44572939Y21791558D01*
X44601632Y21793867D01*
X44646223Y21797454D01*
X44646227Y21797455D01*
X44651265Y21797860D01*
X44683178Y21805699D01*
X44696558Y21808226D01*
X44729120Y21812571D01*
X44733961Y21814032D01*
X44733963Y21814033D01*
X44804329Y21835278D01*
X44810692Y21837019D01*
X44882413Y21854635D01*
X44887005Y21855763D01*
X44887282Y21854635D01*
X44917361Y21859500D01*
X47619901Y21859500D01*
X47622411Y21859702D01*
X47622413Y21859702D01*
X47627304Y21860096D01*
X47657108Y21862493D01*
X47670713Y21862850D01*
X47817513Y21858749D01*
X47887050Y21856807D01*
X47887052Y21856807D01*
X47892105Y21856666D01*
X47897118Y21857335D01*
X47897120Y21857335D01*
X48127706Y21888102D01*
X48132720Y21888771D01*
X48137561Y21890233D01*
X48137563Y21890233D01*
X48360257Y21957468D01*
X48360261Y21957470D01*
X48365108Y21958933D01*
X48583288Y22065346D01*
X48681207Y22134421D01*
X48778414Y22202993D01*
X48778418Y22202996D01*
X48781647Y22205274D01*
X48803150Y22224909D01*
X49116619Y22538377D01*
X49119141Y22540829D01*
X49187902Y22605853D01*
X49191581Y22609332D01*
X49239312Y22671761D01*
X49243454Y22676893D01*
X49291087Y22732862D01*
X49291089Y22732865D01*
X49294370Y22736720D01*
X49296990Y22741046D01*
X49296995Y22741053D01*
X49311391Y22764824D01*
X49319063Y22776071D01*
X49339020Y22802174D01*
X49376147Y22871416D01*
X49379410Y22877137D01*
X49417502Y22940034D01*
X49417503Y22940035D01*
X49420120Y22944357D01*
X49432434Y22974834D01*
X49438203Y22987150D01*
X49453731Y23016109D01*
X49479323Y23090433D01*
X49481618Y23096571D01*
X49509158Y23164733D01*
X49509159Y23164737D01*
X49511055Y23169429D01*
X49518332Y23201461D01*
X49522063Y23214559D01*
X49532762Y23245631D01*
X49546143Y23323100D01*
X49547426Y23329518D01*
X49563715Y23401214D01*
X49563715Y23401215D01*
X49564835Y23406144D01*
X49566899Y23438953D01*
X49568485Y23452453D01*
X49574079Y23484836D01*
X49575400Y23513925D01*
X49575400Y23570107D01*
X49575649Y23578019D01*
X49579760Y23643358D01*
X49580078Y23648412D01*
X49576001Y23689991D01*
X49575400Y23702287D01*
X49575400Y27153984D01*
X49575449Y27157502D01*
X49578093Y27252150D01*
X49578093Y27252153D01*
X49578234Y27257205D01*
X49576507Y27270150D01*
X49575400Y27286812D01*
X49575400Y28423984D01*
X49575449Y28427502D01*
X49578093Y28522150D01*
X49578093Y28522153D01*
X49578234Y28527205D01*
X49567841Y28605098D01*
X49567141Y28611647D01*
X49566928Y28614302D01*
X49562904Y28664310D01*
X49561246Y28684923D01*
X49561245Y28684927D01*
X49560840Y28689965D01*
X49553001Y28721878D01*
X49550473Y28735262D01*
X49546798Y28762806D01*
X49546129Y28767820D01*
X49532527Y28812871D01*
X49523422Y28843029D01*
X49521681Y28849392D01*
X49504144Y28920791D01*
X49502937Y28925706D01*
X49490099Y28955952D01*
X49485461Y28968763D01*
X49477430Y28995362D01*
X49475967Y29000208D01*
X49473749Y29004756D01*
X49473746Y29004763D01*
X49441529Y29070818D01*
X49438793Y29076820D01*
X49410062Y29144505D01*
X49408088Y29149156D01*
X49390581Y29176956D01*
X49383952Y29188866D01*
X49369554Y29218388D01*
X49324257Y29282600D01*
X49320599Y29288086D01*
X49281429Y29350286D01*
X49281428Y29350287D01*
X49278733Y29354567D01*
X49275392Y29358356D01*
X49275388Y29358362D01*
X49257002Y29379217D01*
X49248556Y29389912D01*
X49231909Y29413510D01*
X49229626Y29416747D01*
X49209991Y29438250D01*
X49170275Y29477966D01*
X49164856Y29483736D01*
X49121551Y29532856D01*
X49118202Y29536655D01*
X49114289Y29539869D01*
X49113466Y29540664D01*
X49078359Y29602373D01*
X49082188Y29673266D01*
X49123737Y29730836D01*
X49189814Y29756803D01*
X49200994Y29757300D01*
X54707719Y29757300D01*
X54716618Y29756985D01*
X54776809Y29752723D01*
X54776812Y29752723D01*
X54782137Y29752346D01*
X54834839Y29757560D01*
X54890379Y29763054D01*
X54892130Y29763215D01*
X54936352Y29766968D01*
X55000575Y29772417D01*
X55005745Y29773759D01*
X55010226Y29774525D01*
X55014698Y29775354D01*
X55020007Y29775879D01*
X55124958Y29804689D01*
X55126580Y29805122D01*
X55231940Y29832468D01*
X55236809Y29834662D01*
X55241132Y29836184D01*
X55245366Y29837742D01*
X55250511Y29839154D01*
X55349069Y29885217D01*
X55350663Y29885949D01*
X55449880Y29930643D01*
X55454307Y29933623D01*
X55458285Y29935837D01*
X55462227Y29938104D01*
X55467058Y29940362D01*
X55471438Y29943401D01*
X55471444Y29943404D01*
X55556418Y30002354D01*
X55557872Y30003348D01*
X55643734Y30061153D01*
X55648162Y30064134D01*
X55652026Y30067820D01*
X55656180Y30071160D01*
X55656377Y30070915D01*
X55656991Y30071416D01*
X55656799Y30071658D01*
X55660044Y30074241D01*
X55663457Y30076609D01*
X55678706Y30090484D01*
X55680910Y30092489D01*
X55680922Y30092501D01*
X55682015Y30093495D01*
X55744635Y30156115D01*
X55746758Y30158190D01*
X55771132Y30181442D01*
X55821118Y30229126D01*
X55825722Y30235314D01*
X55837716Y30249196D01*
X56989684Y31401164D01*
X56996199Y31407235D01*
X57041786Y31446793D01*
X57041788Y31446795D01*
X57045819Y31450293D01*
X57114815Y31534440D01*
X57115887Y31535729D01*
X57182641Y31614860D01*
X57182642Y31614861D01*
X57186086Y31618944D01*
X57188794Y31623551D01*
X57191380Y31627203D01*
X57193995Y31631007D01*
X57197378Y31635133D01*
X57200014Y31639763D01*
X57200017Y31639768D01*
X57251188Y31729662D01*
X57252068Y31731183D01*
X57304519Y31820407D01*
X57304520Y31820408D01*
X57307223Y31825007D01*
X57309114Y31829998D01*
X57311096Y31834135D01*
X57312988Y31838229D01*
X57315627Y31842866D01*
X57352748Y31945134D01*
X57353360Y31946784D01*
X57384732Y32029589D01*
X57391910Y32048534D01*
X57392933Y32053774D01*
X57394176Y32058135D01*
X57395364Y32062539D01*
X57397184Y32067553D01*
X57416537Y32174574D01*
X57416862Y32176302D01*
X57436702Y32277896D01*
X57436703Y32277904D01*
X57437724Y32283133D01*
X57437849Y32288463D01*
X57438426Y32293773D01*
X57438803Y32293732D01*
X57438882Y32294510D01*
X57438510Y32294552D01*
X57438979Y32298685D01*
X57439718Y32302769D01*
X57440900Y32327832D01*
X57440900Y32416431D01*
X57440935Y32419399D01*
X57442765Y32497059D01*
X57443355Y32522098D01*
X57442236Y32529723D01*
X57440900Y32548020D01*
X57440900Y33614703D01*
X57460902Y33682824D01*
X57514558Y33729317D01*
X57584832Y33739421D01*
X57644992Y33713585D01*
X57757344Y33624855D01*
X57765931Y33619150D01*
X57967122Y33508086D01*
X57976534Y33503856D01*
X58193168Y33427141D01*
X58203139Y33424507D01*
X58300563Y33407153D01*
X58313860Y33408613D01*
X58317943Y33421704D01*
X58826400Y33421704D01*
X58830318Y33408360D01*
X58844594Y33406373D01*
X58906915Y33415910D01*
X58916943Y33418299D01*
X59135388Y33489698D01*
X59144897Y33493695D01*
X59348744Y33599811D01*
X59357469Y33605305D01*
X59541252Y33743293D01*
X59548961Y33750138D01*
X59707739Y33916291D01*
X59714226Y33924301D01*
X59843730Y34114147D01*
X59848829Y34123121D01*
X59945587Y34331569D01*
X59949150Y34341256D01*
X60010565Y34562708D01*
X60012496Y34572830D01*
X60017301Y34617787D01*
X60014653Y34632408D01*
X60002276Y34635800D01*
X58844515Y34635800D01*
X58829276Y34631325D01*
X58828071Y34629935D01*
X58826400Y34622252D01*
X58826400Y33421704D01*
X58317943Y33421704D01*
X58318400Y33423170D01*
X58318400Y35161915D01*
X58826400Y35161915D01*
X58830875Y35146676D01*
X58832265Y35145471D01*
X58839948Y35143800D01*
X60002812Y35143800D01*
X60017541Y35148125D01*
X60019602Y35159911D01*
X60018649Y35171504D01*
X60016967Y35181666D01*
X59960978Y35404571D01*
X59957659Y35414319D01*
X59866015Y35625089D01*
X59861149Y35634164D01*
X59736315Y35827127D01*
X59730022Y35835298D01*
X59575350Y36005280D01*
X59567817Y36012306D01*
X59387456Y36154745D01*
X59378869Y36160450D01*
X59177678Y36271514D01*
X59168266Y36275744D01*
X58951632Y36352459D01*
X58941661Y36355093D01*
X58844237Y36372447D01*
X58830940Y36370987D01*
X58826400Y36356430D01*
X58826400Y35161915D01*
X58318400Y35161915D01*
X58318400Y36357896D01*
X58314482Y36371240D01*
X58300206Y36373227D01*
X58237885Y36363690D01*
X58227857Y36361301D01*
X58009412Y36289902D01*
X57999903Y36285905D01*
X57796056Y36179789D01*
X57787331Y36174295D01*
X57642553Y36065592D01*
X57576068Y36040686D01*
X57506673Y36055678D01*
X57456399Y36105809D01*
X57440900Y36166352D01*
X57440900Y37251300D01*
X57460902Y37319421D01*
X57514558Y37365914D01*
X57566900Y37377300D01*
X58553031Y37377300D01*
X58556000Y37377265D01*
X58658698Y37374845D01*
X58664989Y37375768D01*
X58666323Y37375964D01*
X58684620Y37377300D01*
X59740914Y37377300D01*
X59757470Y37376208D01*
X59770528Y37374477D01*
X59770531Y37374477D01*
X59775811Y37373777D01*
X59781140Y37373977D01*
X59781141Y37373977D01*
X59867275Y37377211D01*
X59872002Y37377300D01*
X66047719Y37377300D01*
X66056618Y37376985D01*
X66116809Y37372723D01*
X66116812Y37372723D01*
X66122137Y37372346D01*
X66174839Y37377560D01*
X66230379Y37383054D01*
X66232130Y37383215D01*
X66276352Y37386968D01*
X66340575Y37392417D01*
X66345745Y37393759D01*
X66350226Y37394525D01*
X66354698Y37395354D01*
X66360007Y37395879D01*
X66464958Y37424689D01*
X66466580Y37425122D01*
X66571940Y37452468D01*
X66576809Y37454662D01*
X66581132Y37456184D01*
X66585366Y37457742D01*
X66590511Y37459154D01*
X66689069Y37505217D01*
X66690663Y37505949D01*
X66789880Y37550643D01*
X66794307Y37553623D01*
X66798285Y37555837D01*
X66802227Y37558104D01*
X66807058Y37560362D01*
X66811438Y37563401D01*
X66811444Y37563404D01*
X66896418Y37622354D01*
X66897872Y37623348D01*
X66983734Y37681153D01*
X66988162Y37684134D01*
X66992026Y37687820D01*
X66996180Y37691160D01*
X66996377Y37690915D01*
X66996991Y37691416D01*
X66996799Y37691658D01*
X67000044Y37694241D01*
X67003457Y37696609D01*
X67006529Y37699404D01*
X67020910Y37712489D01*
X67020922Y37712501D01*
X67022015Y37713495D01*
X67076594Y37768074D01*
X67089072Y37779008D01*
X67099529Y37787017D01*
X67099534Y37787022D01*
X67103766Y37790263D01*
X67128532Y37816961D01*
X67138324Y37826434D01*
X67161786Y37846793D01*
X67161788Y37846795D01*
X67165819Y37850293D01*
X67169202Y37854419D01*
X67169207Y37854424D01*
X67211869Y37906455D01*
X67216928Y37912254D01*
X67262697Y37961594D01*
X67266326Y37965506D01*
X67280358Y37986990D01*
X67289541Y37999332D01*
X67294862Y38005639D01*
X67306086Y38018945D01*
X67308791Y38023546D01*
X67311432Y38027276D01*
X67314002Y38031015D01*
X67317378Y38035133D01*
X67353314Y38098263D01*
X67357305Y38104802D01*
X67397036Y38165633D01*
X67407249Y38189177D01*
X67414218Y38202883D01*
X67424516Y38220402D01*
X67424516Y38220403D01*
X67427223Y38225007D01*
X67429115Y38230000D01*
X67431096Y38234135D01*
X67432988Y38238229D01*
X67435627Y38242866D01*
X67460409Y38311140D01*
X67463255Y38318291D01*
X67490036Y38380030D01*
X67490036Y38380031D01*
X67492158Y38384922D01*
X67498257Y38409846D01*
X67502819Y38424539D01*
X67510019Y38443544D01*
X67511910Y38448534D01*
X67512933Y38453774D01*
X67514176Y38458135D01*
X67515364Y38462539D01*
X67517184Y38467553D01*
X67530107Y38539017D01*
X67531707Y38546544D01*
X67547701Y38611908D01*
X67548972Y38617102D01*
X67550785Y38642706D01*
X67552805Y38657943D01*
X67556701Y38677892D01*
X67556702Y38677898D01*
X67557724Y38683133D01*
X67557850Y38688466D01*
X67558426Y38693773D01*
X67558803Y38693732D01*
X67558882Y38694510D01*
X67558510Y38694552D01*
X67558978Y38698680D01*
X67559718Y38702769D01*
X67560900Y38727832D01*
X67560900Y38781119D01*
X67561215Y38790018D01*
X67565477Y38850209D01*
X67565477Y38850212D01*
X67565854Y38855537D01*
X67565082Y38863337D01*
X67563328Y38881076D01*
X67562751Y38896445D01*
X67563229Y38916759D01*
X67563355Y38922098D01*
X67562236Y38929722D01*
X67560900Y38948019D01*
X67560900Y42411119D01*
X67561215Y42420018D01*
X67565477Y42480209D01*
X67565477Y42480212D01*
X67565854Y42485537D01*
X67555146Y42593779D01*
X67554985Y42595530D01*
X67546234Y42698656D01*
X67545783Y42703975D01*
X67544441Y42709145D01*
X67543675Y42713626D01*
X67542846Y42718098D01*
X67542321Y42723407D01*
X67513511Y42828358D01*
X67513072Y42830002D01*
X67485732Y42935340D01*
X67483538Y42940209D01*
X67482016Y42944532D01*
X67480458Y42948766D01*
X67479046Y42953911D01*
X67432983Y43052469D01*
X67432251Y43054063D01*
X67427171Y43065340D01*
X67387557Y43153280D01*
X67384577Y43157707D01*
X67382363Y43161685D01*
X67380096Y43165627D01*
X67377838Y43170458D01*
X67374799Y43174838D01*
X67374796Y43174844D01*
X67315846Y43259818D01*
X67314852Y43261272D01*
X67257047Y43347134D01*
X67254066Y43351562D01*
X67250380Y43355426D01*
X67247040Y43359580D01*
X67247285Y43359777D01*
X67246784Y43360391D01*
X67246542Y43360199D01*
X67243959Y43363444D01*
X67241591Y43366857D01*
X67238796Y43369929D01*
X67225711Y43384310D01*
X67225699Y43384322D01*
X67224705Y43385415D01*
X67162085Y43448035D01*
X67160010Y43450159D01*
X67094079Y43519273D01*
X67090084Y43523663D01*
X67071408Y43545184D01*
X67067907Y43549219D01*
X67063781Y43552602D01*
X67063777Y43552606D01*
X67023504Y43585627D01*
X66983760Y43618216D01*
X66982508Y43619257D01*
X66899255Y43689486D01*
X66894657Y43692189D01*
X66890937Y43694823D01*
X66887184Y43697402D01*
X66883067Y43700778D01*
X66878443Y43703410D01*
X66878436Y43703415D01*
X66788502Y43754608D01*
X66787029Y43755460D01*
X66705072Y43803640D01*
X66697800Y43807915D01*
X66697797Y43807916D01*
X66693193Y43810623D01*
X66688196Y43812516D01*
X66684039Y43814508D01*
X66679971Y43816388D01*
X66675334Y43819027D01*
X66599880Y43846415D01*
X66573066Y43856148D01*
X66571416Y43856760D01*
X66541937Y43867929D01*
X66469666Y43895310D01*
X66464426Y43896333D01*
X66460065Y43897576D01*
X66455661Y43898764D01*
X66450647Y43900584D01*
X66445398Y43901533D01*
X66445395Y43901534D01*
X66343626Y43919937D01*
X66341898Y43920262D01*
X66240304Y43940102D01*
X66240296Y43940103D01*
X66235067Y43941124D01*
X66229737Y43941249D01*
X66224427Y43941826D01*
X66224468Y43942203D01*
X66223690Y43942282D01*
X66223648Y43941910D01*
X66219520Y43942378D01*
X66215431Y43943118D01*
X66211277Y43943314D01*
X66211276Y43943314D01*
X66191856Y43944230D01*
X66191849Y43944230D01*
X66190368Y43944300D01*
X66101769Y43944300D01*
X66098801Y43944335D01*
X66095893Y43944404D01*
X65996102Y43946755D01*
X65989811Y43945832D01*
X65988477Y43945636D01*
X65970180Y43944300D01*
X64091769Y43944300D01*
X64088801Y43944335D01*
X64085893Y43944404D01*
X63986102Y43946755D01*
X63979811Y43945832D01*
X63978477Y43945636D01*
X63960180Y43944300D01*
X59011795Y43944300D01*
X58969795Y43951989D01*
X58969786Y43951958D01*
X58969461Y43952051D01*
X58967154Y43952473D01*
X58959666Y43955310D01*
X58954426Y43956333D01*
X58950065Y43957576D01*
X58945661Y43958764D01*
X58940647Y43960584D01*
X58935398Y43961533D01*
X58935395Y43961534D01*
X58833626Y43979937D01*
X58831898Y43980262D01*
X58730304Y44000102D01*
X58730296Y44000103D01*
X58725067Y44001124D01*
X58719737Y44001249D01*
X58714427Y44001826D01*
X58714468Y44002203D01*
X58713690Y44002282D01*
X58713648Y44001910D01*
X58709520Y44002378D01*
X58705431Y44003118D01*
X58701277Y44003314D01*
X58701276Y44003314D01*
X58681856Y44004230D01*
X58681849Y44004230D01*
X58680368Y44004300D01*
X58591769Y44004300D01*
X58588801Y44004335D01*
X58585893Y44004404D01*
X58486102Y44006755D01*
X58479811Y44005832D01*
X58478477Y44005636D01*
X58460180Y44004300D01*
X57357081Y44004300D01*
X57348182Y44004615D01*
X57287991Y44008877D01*
X57287988Y44008877D01*
X57282663Y44009254D01*
X57274863Y44008482D01*
X57257124Y44006728D01*
X57241755Y44006151D01*
X57227186Y44006494D01*
X57216102Y44006755D01*
X57209811Y44005832D01*
X57208477Y44005636D01*
X57190180Y44004300D01*
X53511769Y44004300D01*
X53508801Y44004335D01*
X53505893Y44004404D01*
X53406102Y44006755D01*
X53399811Y44005832D01*
X53398477Y44005636D01*
X53380180Y44004300D01*
X27714774Y44004300D01*
X27698218Y44005392D01*
X27685160Y44007123D01*
X27685157Y44007123D01*
X27679877Y44007823D01*
X27674548Y44007623D01*
X27674546Y44007623D01*
X27607296Y44005098D01*
X27599601Y44005044D01*
X27552616Y44006151D01*
X27526990Y44006755D01*
X27493408Y44001826D01*
X27490969Y44001468D01*
X27477398Y44000221D01*
X27441014Y43998855D01*
X27435793Y43997760D01*
X27435789Y43997759D01*
X27415905Y43993587D01*
X27400681Y43991352D01*
X27395153Y43990883D01*
X27380426Y43989634D01*
X27380423Y43989634D01*
X27375113Y43989183D01*
X27339852Y43980031D01*
X27326516Y43977331D01*
X27319300Y43976272D01*
X27295781Y43972820D01*
X27295774Y43972818D01*
X27290492Y43972043D01*
X27255873Y43960761D01*
X27242716Y43957248D01*
X27212295Y43950865D01*
X27212294Y43950865D01*
X27207077Y43949770D01*
X27202115Y43947810D01*
X27202114Y43947810D01*
X27183209Y43940344D01*
X27168593Y43935580D01*
X27143748Y43929132D01*
X27138876Y43926937D01*
X27138875Y43926937D01*
X27110552Y43914179D01*
X27097847Y43909264D01*
X27068301Y43899635D01*
X27068290Y43899630D01*
X27063226Y43897980D01*
X27030999Y43881025D01*
X27018628Y43875348D01*
X26984755Y43861971D01*
X26975654Y43856448D01*
X26962816Y43848658D01*
X26949204Y43841497D01*
X26930675Y43833150D01*
X26930670Y43833147D01*
X26925808Y43830957D01*
X26921384Y43827978D01*
X26921383Y43827978D01*
X26895612Y43810628D01*
X26883913Y43803640D01*
X26856378Y43789153D01*
X26786779Y43775136D01*
X26722145Y43799835D01*
X26667180Y43841029D01*
X26667178Y43841030D01*
X26659993Y43846415D01*
X26523604Y43897545D01*
X26461422Y43904300D01*
X26158757Y43904300D01*
X26115766Y43911861D01*
X26037962Y43940102D01*
X25981535Y43960584D01*
X25976286Y43961533D01*
X25976283Y43961534D01*
X25750403Y44002380D01*
X25750395Y44002381D01*
X25746319Y44003118D01*
X25727929Y44003985D01*
X25722744Y44004230D01*
X25722737Y44004230D01*
X25721256Y44004300D01*
X19257081Y44004300D01*
X19248182Y44004615D01*
X19187991Y44008877D01*
X19187988Y44008877D01*
X19182663Y44009254D01*
X19129961Y44004040D01*
X19074421Y43998546D01*
X19072670Y43998385D01*
X19028448Y43994632D01*
X18964225Y43989183D01*
X18959055Y43987841D01*
X18954574Y43987075D01*
X18950102Y43986246D01*
X18944793Y43985721D01*
X18839842Y43956911D01*
X18838220Y43956478D01*
X18732860Y43929132D01*
X18727989Y43926937D01*
X18723652Y43925410D01*
X18719433Y43923858D01*
X18714289Y43922446D01*
X18700818Y43916150D01*
X18647473Y43904300D01*
X18354266Y43904300D01*
X18292084Y43897545D01*
X18155695Y43846415D01*
X18039139Y43759061D01*
X17951785Y43642505D01*
X17900655Y43506116D01*
X17898947Y43490389D01*
X17894346Y43448035D01*
X17893900Y43443934D01*
X17893900Y43331410D01*
X17873898Y43263289D01*
X17856995Y43242315D01*
X16975116Y42360436D01*
X16968601Y42354365D01*
X16928340Y42319428D01*
X16918981Y42311307D01*
X16915598Y42307181D01*
X16915594Y42307177D01*
X16882573Y42266904D01*
X16849984Y42227160D01*
X16848943Y42225908D01*
X16778714Y42142655D01*
X16776011Y42138057D01*
X16773377Y42134337D01*
X16770798Y42130584D01*
X16767422Y42126467D01*
X16764790Y42121843D01*
X16764785Y42121836D01*
X16713592Y42031902D01*
X16712740Y42030429D01*
X16657577Y41936593D01*
X16655684Y41931596D01*
X16653692Y41927439D01*
X16651812Y41923371D01*
X16649173Y41918734D01*
X16647353Y41913719D01*
X16612052Y41816466D01*
X16611440Y41814816D01*
X16572890Y41713066D01*
X16571867Y41707826D01*
X16570624Y41703465D01*
X16569436Y41699061D01*
X16567616Y41694047D01*
X16566667Y41688798D01*
X16566666Y41688795D01*
X16548263Y41587026D01*
X16547938Y41585298D01*
X16528098Y41483704D01*
X16528097Y41483696D01*
X16527076Y41478467D01*
X16526951Y41473137D01*
X16526374Y41467827D01*
X16525997Y41467868D01*
X16525918Y41467090D01*
X16526290Y41467048D01*
X16525822Y41462920D01*
X16525082Y41458831D01*
X16523900Y41433768D01*
X16523900Y41345169D01*
X16523865Y41342201D01*
X16521445Y41239502D01*
X16522221Y41234216D01*
X16522564Y41231877D01*
X16523900Y41213580D01*
X16523900Y37455788D01*
X16539017Y37277625D01*
X16540357Y37272461D01*
X16540358Y37272457D01*
X16579937Y37119970D01*
X16599068Y37046260D01*
X16601260Y37041394D01*
X16656745Y36918223D01*
X16697243Y36828320D01*
X16830734Y36630038D01*
X16995726Y36457082D01*
X17144991Y36346026D01*
X17187703Y36289317D01*
X17192976Y36218517D01*
X17159134Y36156105D01*
X17140144Y36140418D01*
X17128434Y36132534D01*
X17046638Y36077466D01*
X17042781Y36073787D01*
X17042779Y36073785D01*
X16996712Y36029839D01*
X16873682Y35912474D01*
X16730998Y35720700D01*
X16728582Y35715949D01*
X16728580Y35715945D01*
X16687001Y35634164D01*
X16622667Y35507628D01*
X16598235Y35428944D01*
X16553368Y35284451D01*
X16553367Y35284445D01*
X16551784Y35279348D01*
X16520377Y35042389D01*
X16529345Y34803526D01*
X16547581Y34716616D01*
X16564538Y34635800D01*
X16578430Y34569589D01*
X16666229Y34347267D01*
X16790232Y34142917D01*
X16793729Y34138887D01*
X16942715Y33967196D01*
X16946893Y33962381D01*
X16951019Y33958998D01*
X16951023Y33958994D01*
X17125620Y33815834D01*
X17131733Y33810822D01*
X17136366Y33808185D01*
X17138301Y33806855D01*
X17183108Y33751784D01*
X17191029Y33681230D01*
X17159548Y33617595D01*
X17137294Y33598499D01*
X17046638Y33537466D01*
X17042781Y33533787D01*
X17042779Y33533785D01*
X16973948Y33468123D01*
X16873682Y33372474D01*
X16730998Y33180700D01*
X16622667Y32967628D01*
X16598571Y32890025D01*
X16553368Y32744451D01*
X16553367Y32744445D01*
X16551784Y32739348D01*
X16520377Y32502389D01*
X16529345Y32263526D01*
X16578430Y32029589D01*
X16666229Y31807267D01*
X16790232Y31602917D01*
X16793729Y31598887D01*
X16942715Y31427196D01*
X16946893Y31422381D01*
X16951019Y31418998D01*
X16951023Y31418994D01*
X17127602Y31274209D01*
X17131733Y31270822D01*
X17136369Y31268183D01*
X17138301Y31266855D01*
X17183108Y31211784D01*
X17191029Y31141230D01*
X17159548Y31077595D01*
X17137294Y31058499D01*
X17046638Y30997466D01*
X16873682Y30832474D01*
X16730998Y30640700D01*
X16728582Y30635949D01*
X16728580Y30635945D01*
X16648440Y30478320D01*
X16622667Y30427628D01*
X16593298Y30333044D01*
X16553368Y30204451D01*
X16553367Y30204445D01*
X16551784Y30199348D01*
X16537754Y30093495D01*
X16528517Y30023800D01*
X16520377Y29962389D01*
X16529345Y29723526D01*
X16530440Y29718308D01*
X16569352Y29532856D01*
X16578430Y29489589D01*
X16666229Y29267267D01*
X16790232Y29062917D01*
X16793729Y29058887D01*
X16913563Y28920791D01*
X16946893Y28882381D01*
X16951019Y28878998D01*
X16951023Y28878994D01*
X16994886Y28843029D01*
X17131733Y28730822D01*
X17136369Y28728183D01*
X17136372Y28728181D01*
X17255019Y28660643D01*
X17339466Y28612573D01*
X17564153Y28531016D01*
X17569402Y28530067D01*
X17569405Y28530066D01*
X17795285Y28489220D01*
X17795293Y28489219D01*
X17799369Y28488482D01*
X17817759Y28487615D01*
X17822944Y28487370D01*
X17822951Y28487370D01*
X17824432Y28487300D01*
X22191476Y28487300D01*
X22259597Y28467298D01*
X22283177Y28441565D01*
X22284511Y28442899D01*
X22999588Y27727822D01*
X23013532Y27720208D01*
X23015365Y27720339D01*
X23021980Y27724590D01*
X23727477Y28430087D01*
X23733907Y28441862D01*
X23724611Y28453877D01*
X23712259Y28462526D01*
X23667931Y28517984D01*
X23660622Y28588603D01*
X23692653Y28651963D01*
X23714163Y28670259D01*
X23898162Y28794134D01*
X23917219Y28812313D01*
X24002727Y28893884D01*
X24071118Y28959126D01*
X24078125Y28968543D01*
X24210616Y29146618D01*
X24213802Y29150900D01*
X24229985Y29182728D01*
X24319714Y29359214D01*
X24319714Y29359215D01*
X24322133Y29363972D01*
X24375753Y29536655D01*
X24391432Y29587149D01*
X24391433Y29587155D01*
X24393016Y29592252D01*
X24414892Y29757300D01*
X24423723Y29823927D01*
X24423723Y29823931D01*
X24424423Y29829211D01*
X24415455Y30068074D01*
X24380765Y30233404D01*
X24367467Y30296784D01*
X24367464Y30296795D01*
X24366370Y30302011D01*
X24278571Y30524333D01*
X24154568Y30728683D01*
X24076438Y30818720D01*
X24046899Y30883279D01*
X24056953Y30953561D01*
X24103408Y31007249D01*
X24171604Y31027300D01*
X25497719Y31027300D01*
X25506618Y31026985D01*
X25566809Y31022723D01*
X25566812Y31022723D01*
X25572137Y31022346D01*
X25624839Y31027560D01*
X25680379Y31033054D01*
X25682130Y31033215D01*
X25726352Y31036968D01*
X25790575Y31042417D01*
X25795745Y31043759D01*
X25800226Y31044525D01*
X25804698Y31045354D01*
X25810007Y31045879D01*
X25914958Y31074689D01*
X25916580Y31075122D01*
X26021940Y31102468D01*
X26026809Y31104662D01*
X26031132Y31106184D01*
X26035366Y31107742D01*
X26040511Y31109154D01*
X26139069Y31155217D01*
X26140663Y31155949D01*
X26159701Y31164525D01*
X26239880Y31200643D01*
X26244307Y31203623D01*
X26248285Y31205837D01*
X26252227Y31208104D01*
X26257058Y31210362D01*
X26261438Y31213401D01*
X26261444Y31213404D01*
X26346418Y31272354D01*
X26347872Y31273348D01*
X26433734Y31331153D01*
X26438162Y31334134D01*
X26442026Y31337820D01*
X26446180Y31341160D01*
X26446377Y31340915D01*
X26446991Y31341416D01*
X26446799Y31341658D01*
X26450044Y31344241D01*
X26453457Y31346609D01*
X26456529Y31349404D01*
X26470910Y31362489D01*
X26470922Y31362501D01*
X26472015Y31363495D01*
X26534635Y31426115D01*
X26536758Y31428190D01*
X26564257Y31454423D01*
X26611118Y31499126D01*
X26615722Y31505314D01*
X26627716Y31519196D01*
X28570572Y33462052D01*
X28577087Y33468123D01*
X28622674Y33507681D01*
X28622676Y33507683D01*
X28626707Y33511181D01*
X28630090Y33515307D01*
X28630094Y33515311D01*
X28669091Y33562872D01*
X28695704Y33595328D01*
X28696745Y33596580D01*
X28744678Y33653402D01*
X28763536Y33675757D01*
X28763538Y33675760D01*
X28766974Y33679833D01*
X28769677Y33684431D01*
X28772311Y33688151D01*
X28774890Y33691904D01*
X28778266Y33696021D01*
X28780898Y33700645D01*
X28780903Y33700652D01*
X28832096Y33790586D01*
X28832977Y33792109D01*
X28842804Y33808824D01*
X28881197Y33874134D01*
X28885403Y33881288D01*
X28885404Y33881291D01*
X28888111Y33885895D01*
X28890004Y33890892D01*
X28891996Y33895049D01*
X28893876Y33899117D01*
X28896515Y33903754D01*
X28920984Y33971165D01*
X28933636Y34006022D01*
X28934248Y34007672D01*
X28970907Y34104432D01*
X28972798Y34109422D01*
X28973821Y34114661D01*
X28975078Y34119072D01*
X28976250Y34123416D01*
X28977014Y34124665D01*
X28978028Y34128319D01*
X28978061Y34128410D01*
X28979080Y34128041D01*
X29013305Y34183975D01*
X29077219Y34214887D01*
X29147699Y34206337D01*
X29202368Y34161041D01*
X29223900Y34090596D01*
X29223900Y31220481D01*
X29223585Y31211582D01*
X29220395Y31166523D01*
X29218946Y31146063D01*
X29221297Y31122302D01*
X29229654Y31037821D01*
X29229815Y31036070D01*
X29239017Y30927625D01*
X29240359Y30922455D01*
X29241125Y30917974D01*
X29241954Y30913502D01*
X29242479Y30908193D01*
X29271274Y30803299D01*
X29271722Y30801620D01*
X29299068Y30696260D01*
X29301262Y30691391D01*
X29302784Y30687068D01*
X29304342Y30682834D01*
X29305754Y30677689D01*
X29323042Y30640700D01*
X29351815Y30579136D01*
X29352547Y30577541D01*
X29397243Y30478320D01*
X29400223Y30473893D01*
X29402437Y30469915D01*
X29404704Y30465973D01*
X29406962Y30461142D01*
X29410001Y30456762D01*
X29410004Y30456756D01*
X29468954Y30371782D01*
X29469948Y30370328D01*
X29530734Y30280038D01*
X29534420Y30276174D01*
X29537760Y30272020D01*
X29537515Y30271823D01*
X29538016Y30271209D01*
X29538258Y30271401D01*
X29540841Y30268156D01*
X29543209Y30264743D01*
X29546002Y30261673D01*
X29546004Y30261671D01*
X29559089Y30247290D01*
X29559101Y30247278D01*
X29560095Y30246185D01*
X29622715Y30183565D01*
X29624790Y30181442D01*
X29695726Y30107082D01*
X29700004Y30103899D01*
X29701914Y30102478D01*
X29715796Y30090484D01*
X30867764Y28938516D01*
X30873835Y28932001D01*
X30883563Y28920791D01*
X30916893Y28882381D01*
X31001040Y28813385D01*
X31002291Y28812345D01*
X31085544Y28742114D01*
X31090151Y28739406D01*
X31093803Y28736820D01*
X31097607Y28734205D01*
X31101733Y28730822D01*
X31106363Y28728186D01*
X31106368Y28728183D01*
X31196262Y28677012D01*
X31197783Y28676132D01*
X31291607Y28620977D01*
X31296598Y28619086D01*
X31300735Y28617104D01*
X31304829Y28615212D01*
X31309466Y28612573D01*
X31330093Y28605086D01*
X31411734Y28575452D01*
X31413384Y28574840D01*
X31437276Y28565788D01*
X31515134Y28536290D01*
X31520374Y28535267D01*
X31524735Y28534024D01*
X31529139Y28532836D01*
X31534153Y28531016D01*
X31539402Y28530067D01*
X31539405Y28530066D01*
X31641174Y28511663D01*
X31642902Y28511338D01*
X31662049Y28507599D01*
X31725073Y28474912D01*
X31760421Y28413340D01*
X31763900Y28383935D01*
X31763900Y27295788D01*
X31779017Y27117625D01*
X31780357Y27112461D01*
X31780358Y27112457D01*
X31811781Y26991392D01*
X31839068Y26886260D01*
X31841260Y26881394D01*
X31916516Y26714333D01*
X31937243Y26668320D01*
X32070734Y26470038D01*
X32074413Y26466181D01*
X32074415Y26466179D01*
X32096331Y26443205D01*
X32235726Y26297082D01*
X32427500Y26154398D01*
X32432251Y26151982D01*
X32432255Y26151980D01*
X32600550Y26066415D01*
X32640572Y26046067D01*
X32744076Y26013928D01*
X32863749Y25976768D01*
X32863755Y25976767D01*
X32868852Y25975184D01*
X32996283Y25958294D01*
X33100527Y25944477D01*
X33100531Y25944477D01*
X33105811Y25943777D01*
X33111140Y25943977D01*
X33111141Y25943977D01*
X33208909Y25947648D01*
X33344674Y25952745D01*
X33435875Y25971881D01*
X33573384Y26000733D01*
X33573387Y26000734D01*
X33578611Y26001830D01*
X33800933Y26089629D01*
X34005283Y26213632D01*
X34020406Y26226755D01*
X34181786Y26366793D01*
X34181788Y26366795D01*
X34185819Y26370293D01*
X34189202Y26374419D01*
X34189206Y26374423D01*
X34317189Y26530511D01*
X34337378Y26555133D01*
X34363625Y26601241D01*
X34452984Y26758223D01*
X34455627Y26762866D01*
X34537184Y26987553D01*
X34551455Y27066472D01*
X34578980Y27218685D01*
X34578981Y27218693D01*
X34579718Y27222769D01*
X34580900Y27247832D01*
X34580900Y29794314D01*
X34581992Y29810870D01*
X34583723Y29823928D01*
X34583723Y29823931D01*
X34584423Y29829211D01*
X34580989Y29920676D01*
X34580900Y29925402D01*
X34580900Y29955812D01*
X34578943Y29978877D01*
X34578581Y29984799D01*
X34575655Y30062743D01*
X34575455Y30068074D01*
X34574359Y30073299D01*
X34570187Y30093183D01*
X34567952Y30108408D01*
X34566235Y30128653D01*
X34566234Y30128659D01*
X34565783Y30133975D01*
X34561006Y30152381D01*
X34544844Y30214653D01*
X34543488Y30220431D01*
X34527465Y30296795D01*
X34527463Y30296801D01*
X34526370Y30302011D01*
X34516944Y30325879D01*
X34512180Y30340495D01*
X34505732Y30365340D01*
X34471495Y30441343D01*
X34469185Y30446813D01*
X34440534Y30519363D01*
X34440533Y30519366D01*
X34438571Y30524333D01*
X34425256Y30546275D01*
X34418097Y30559884D01*
X34409749Y30578415D01*
X34409747Y30578419D01*
X34407557Y30583280D01*
X34361001Y30652433D01*
X34357832Y30657388D01*
X34314568Y30728683D01*
X34297752Y30748061D01*
X34288396Y30760277D01*
X34277048Y30777134D01*
X34277042Y30777142D01*
X34274066Y30781562D01*
X34270387Y30785419D01*
X34270381Y30785426D01*
X34216528Y30841878D01*
X34212531Y30846270D01*
X34161407Y30905186D01*
X34161405Y30905188D01*
X34157907Y30909219D01*
X34138064Y30925489D01*
X34126784Y30935953D01*
X34112764Y30950650D01*
X34112763Y30950651D01*
X34109074Y30954518D01*
X34042178Y31004290D01*
X34037527Y31007924D01*
X33977198Y31057391D01*
X33977196Y31057392D01*
X33973067Y31060778D01*
X33968471Y31063394D01*
X33923671Y31118449D01*
X33915745Y31189002D01*
X33947221Y31252640D01*
X33974481Y31274940D01*
X34000719Y31290862D01*
X34000723Y31290865D01*
X34005283Y31293632D01*
X34048522Y31331153D01*
X34181786Y31446793D01*
X34181788Y31446795D01*
X34185819Y31450293D01*
X34189205Y31454422D01*
X34189206Y31454423D01*
X34307658Y31598887D01*
X34337378Y31635133D01*
X34455627Y31842866D01*
X34537184Y32067553D01*
X34563520Y32213193D01*
X34578980Y32298685D01*
X34578981Y32298693D01*
X34579718Y32302769D01*
X34580900Y32327832D01*
X34580900Y33441300D01*
X34600902Y33509421D01*
X34654558Y33555914D01*
X34706900Y33567300D01*
X36845486Y33567300D01*
X36913607Y33547298D01*
X36932478Y33532091D01*
X36936639Y33526539D01*
X37053195Y33439185D01*
X37189584Y33388055D01*
X37251766Y33381300D01*
X39157900Y33381300D01*
X39226021Y33361298D01*
X39272514Y33307642D01*
X39283900Y33255300D01*
X39283900Y28663612D01*
X39283770Y28657896D01*
X39280143Y28578037D01*
X39280143Y28578031D01*
X39279914Y28572983D01*
X39280495Y28567963D01*
X39280672Y28562893D01*
X39280655Y28562892D01*
X39280924Y28556710D01*
X39280942Y28556711D01*
X39281207Y28551650D01*
X39281066Y28546595D01*
X39281735Y28541582D01*
X39282793Y28533653D01*
X39283900Y28516988D01*
X39283900Y25869612D01*
X39283770Y25863897D01*
X39279914Y25778983D01*
X39280495Y25773963D01*
X39280495Y25773959D01*
X39283065Y25751750D01*
X39283900Y25737268D01*
X39283900Y23597692D01*
X39283651Y23589781D01*
X39279222Y23519387D01*
X39279716Y23514350D01*
X39279716Y23514345D01*
X39281031Y23500937D01*
X39281584Y23485124D01*
X39281066Y23466595D01*
X39281735Y23461582D01*
X39282793Y23453653D01*
X39283900Y23436988D01*
X39283900Y21176510D01*
X39263898Y21108389D01*
X39210242Y21061896D01*
X39139968Y21051792D01*
X39079809Y21077627D01*
X39079233Y21078081D01*
X39063676Y21090368D01*
X39059160Y21092861D01*
X39059157Y21092863D01*
X38857874Y21203977D01*
X38857870Y21203979D01*
X38853350Y21206474D01*
X38848481Y21208198D01*
X38848477Y21208200D01*
X38631760Y21284944D01*
X38631756Y21284945D01*
X38626885Y21286670D01*
X38621792Y21287577D01*
X38621789Y21287578D01*
X38395452Y21327895D01*
X38395446Y21327896D01*
X38390363Y21328801D01*
X38297874Y21329931D01*
X38155307Y21331673D01*
X38155305Y21331673D01*
X38150137Y21331736D01*
X37912656Y21295396D01*
X37814785Y21263407D01*
X37732569Y21236535D01*
X37693424Y21230300D01*
X30819886Y21230300D01*
X30803330Y21231392D01*
X30790272Y21233123D01*
X30790269Y21233123D01*
X30784989Y21233823D01*
X30779660Y21233623D01*
X30779659Y21233623D01*
X30693525Y21230389D01*
X30688798Y21230300D01*
X29549886Y21230300D01*
X29533330Y21231392D01*
X29520272Y21233123D01*
X29520269Y21233123D01*
X29514989Y21233823D01*
X29509660Y21233623D01*
X29509659Y21233623D01*
X29423525Y21230389D01*
X29418798Y21230300D01*
X28279886Y21230300D01*
X28263330Y21231392D01*
X28250272Y21233123D01*
X28250269Y21233123D01*
X28244989Y21233823D01*
X28239660Y21233623D01*
X28239659Y21233623D01*
X28153525Y21230389D01*
X28148798Y21230300D01*
X27372010Y21230300D01*
X27303889Y21250302D01*
X27282915Y21267205D01*
X26997805Y21552315D01*
X26963779Y21614627D01*
X26960900Y21641410D01*
X26960900Y22951119D01*
X26961215Y22960018D01*
X26965477Y23020209D01*
X26965477Y23020212D01*
X26965854Y23025537D01*
X26955146Y23133779D01*
X26954985Y23135530D01*
X26946234Y23238656D01*
X26945783Y23243975D01*
X26944441Y23249145D01*
X26943675Y23253626D01*
X26942846Y23258098D01*
X26942321Y23263407D01*
X26913511Y23368358D01*
X26913072Y23370002D01*
X26904971Y23401214D01*
X26885732Y23475340D01*
X26883538Y23480209D01*
X26882016Y23484532D01*
X26880458Y23488766D01*
X26879046Y23493911D01*
X26832983Y23592469D01*
X26832251Y23594063D01*
X26787557Y23693280D01*
X26784577Y23697707D01*
X26782363Y23701685D01*
X26780096Y23705627D01*
X26777838Y23710458D01*
X26774799Y23714838D01*
X26774796Y23714844D01*
X26715846Y23799818D01*
X26714852Y23801272D01*
X26657047Y23887134D01*
X26654066Y23891562D01*
X26650380Y23895426D01*
X26647040Y23899580D01*
X26647285Y23899777D01*
X26646784Y23900391D01*
X26646542Y23900199D01*
X26643959Y23903444D01*
X26641591Y23906857D01*
X26630485Y23919063D01*
X26625711Y23924310D01*
X26625699Y23924322D01*
X26624705Y23925415D01*
X26562085Y23988035D01*
X26560010Y23990158D01*
X26540915Y24010175D01*
X26489074Y24064518D01*
X26482886Y24069122D01*
X26469004Y24081116D01*
X25965925Y24584195D01*
X25829255Y24699486D01*
X25623193Y24820623D01*
X25399666Y24905310D01*
X25394433Y24906332D01*
X25170303Y24950102D01*
X25170297Y24950103D01*
X25165067Y24951124D01*
X25159737Y24951250D01*
X25159733Y24951250D01*
X25030286Y24954300D01*
X24926102Y24956755D01*
X24758999Y24932228D01*
X24694883Y24922818D01*
X24694881Y24922818D01*
X24689604Y24922043D01*
X24575971Y24885011D01*
X24504933Y24861861D01*
X24462338Y24847980D01*
X24353561Y24790750D01*
X24255489Y24739152D01*
X24185890Y24725136D01*
X24121257Y24749835D01*
X24066292Y24791029D01*
X24066290Y24791030D01*
X24059105Y24796415D01*
X23922716Y24847545D01*
X23860534Y24854300D01*
X23557869Y24854300D01*
X23514878Y24861861D01*
X23474764Y24876421D01*
X23380647Y24910584D01*
X23375398Y24911533D01*
X23375395Y24911534D01*
X23149515Y24952380D01*
X23149507Y24952381D01*
X23145431Y24953118D01*
X23127041Y24953985D01*
X23121856Y24954230D01*
X23121849Y24954230D01*
X23120368Y24954300D01*
X19838010Y24954300D01*
X19769889Y24974302D01*
X19748915Y24991205D01*
X19277805Y25462315D01*
X19243779Y25524627D01*
X19240900Y25551410D01*
X19240900Y25663934D01*
X19234145Y25726116D01*
X19183015Y25862505D01*
X19095661Y25979061D01*
X18979105Y26066415D01*
X18842716Y26117545D01*
X18780534Y26124300D01*
X18477373Y26124300D01*
X18432732Y26132473D01*
X18381244Y26151980D01*
X18319666Y26175310D01*
X18309056Y26177382D01*
X18090303Y26220102D01*
X18090297Y26220103D01*
X18085067Y26221124D01*
X18079737Y26221250D01*
X18079733Y26221250D01*
X17950841Y26224287D01*
X17846102Y26226755D01*
X17678999Y26202228D01*
X17614883Y26192818D01*
X17614881Y26192818D01*
X17609604Y26192043D01*
X17548402Y26172098D01*
X17420759Y26130501D01*
X17381718Y26124300D01*
X17084266Y26124300D01*
X17022084Y26117545D01*
X16885695Y26066415D01*
X16769139Y25979061D01*
X16681785Y25862505D01*
X16630655Y25726116D01*
X16623900Y25663934D01*
X16623900Y25364888D01*
X16613493Y25314746D01*
X16594767Y25271578D01*
X16594765Y25271573D01*
X16592642Y25266678D01*
X16591374Y25261496D01*
X16591372Y25261490D01*
X16537096Y25039682D01*
X16537095Y25039676D01*
X16535828Y25034498D01*
X16535451Y25029175D01*
X16535451Y25029174D01*
X16520494Y24817920D01*
X16518946Y24796063D01*
X16532674Y24657298D01*
X16533288Y24651095D01*
X16533900Y24638690D01*
X16533900Y22285169D01*
X16533865Y22282201D01*
X16531445Y22179502D01*
X16532221Y22174216D01*
X16532564Y22171877D01*
X16533900Y22153580D01*
X16533900Y19665788D01*
X16549017Y19487625D01*
X16550357Y19482461D01*
X16550358Y19482457D01*
X16605132Y19271425D01*
X16609068Y19256260D01*
X16611260Y19251394D01*
X16666745Y19128223D01*
X16707243Y19038320D01*
X16840734Y18840038D01*
X16844413Y18836181D01*
X16844415Y18836179D01*
X16889793Y18788611D01*
X17005726Y18667082D01*
X17010003Y18663899D01*
X17010004Y18663899D01*
X17152684Y18557742D01*
X17195397Y18501032D01*
X17200670Y18430231D01*
X17166827Y18367819D01*
X17147838Y18352133D01*
X17104613Y18323032D01*
X17066638Y18297466D01*
X17062773Y18293779D01*
X17058620Y18290440D01*
X17058423Y18290685D01*
X17057809Y18290184D01*
X17058001Y18289942D01*
X17054756Y18287359D01*
X17051343Y18284991D01*
X17048273Y18282198D01*
X17048271Y18282196D01*
X17033890Y18269111D01*
X17033878Y18269099D01*
X17032785Y18268105D01*
X16970165Y18205485D01*
X16968042Y18203410D01*
X16893682Y18132474D01*
X16862002Y18089895D01*
X16857260Y18083912D01*
X16788714Y18002655D01*
X16760615Y17954857D01*
X16755898Y17947746D01*
X16754186Y17944985D01*
X16750998Y17940700D01*
X16745930Y17930731D01*
X16744453Y17927827D01*
X16740757Y17921077D01*
X16667577Y17796593D01*
X16582890Y17573066D01*
X16581868Y17567834D01*
X16581868Y17567833D01*
X16538098Y17343703D01*
X16538097Y17343697D01*
X16537076Y17338467D01*
X16531445Y17099502D01*
X16566157Y16863004D01*
X16640220Y16635738D01*
X16642703Y16631019D01*
X16744982Y16436618D01*
X16751516Y16424198D01*
X16896863Y16234434D01*
X16900773Y16230807D01*
X17051323Y16091153D01*
X17072106Y16071874D01*
X17076563Y16068963D01*
X17076572Y16068956D01*
X17149757Y16021156D01*
X17195853Y15967159D01*
X17205438Y15896812D01*
X17175469Y15832451D01*
X17151224Y15811145D01*
X17056638Y15747466D01*
X16883682Y15582474D01*
X16740998Y15390700D01*
X16738582Y15385949D01*
X16738580Y15385945D01*
X16690516Y15291409D01*
X16632667Y15177628D01*
X16608571Y15100025D01*
X16563368Y14954451D01*
X16563367Y14954445D01*
X16561784Y14949348D01*
X16561083Y14944056D01*
X16534315Y14742098D01*
X16530377Y14712389D01*
X16539345Y14473526D01*
X16540440Y14468308D01*
X16583404Y14263544D01*
X16588430Y14239589D01*
X16676229Y14017267D01*
X16800232Y13812917D01*
X16803729Y13808887D01*
X16923995Y13670293D01*
X16956893Y13632381D01*
X16961019Y13628998D01*
X16961023Y13628994D01*
X17104399Y13511434D01*
X17141733Y13480822D01*
X17146369Y13478183D01*
X17148301Y13476855D01*
X17193108Y13421784D01*
X17201029Y13351230D01*
X17169548Y13287595D01*
X17147294Y13268499D01*
X17056638Y13207466D01*
X16883682Y13042474D01*
X16880499Y13038197D01*
X16880499Y13038196D01*
X16860350Y13011115D01*
X16740998Y12850700D01*
X16738582Y12845949D01*
X16738580Y12845945D01*
X16635086Y12642386D01*
X16632667Y12637628D01*
X16597225Y12523488D01*
X16563368Y12414451D01*
X16563367Y12414445D01*
X16561784Y12409348D01*
X16530377Y12172389D01*
X16539345Y11933526D01*
X16588430Y11699589D01*
X16676229Y11477267D01*
X16800232Y11272917D01*
X16803729Y11268887D01*
X16952715Y11097196D01*
X16956893Y11092381D01*
X16961019Y11088998D01*
X16961023Y11088994D01*
X17036998Y11026699D01*
X17141733Y10940822D01*
X17146369Y10938183D01*
X17146372Y10938181D01*
X17255308Y10876171D01*
X17349466Y10822573D01*
X17574153Y10741016D01*
X17579402Y10740067D01*
X17579405Y10740066D01*
X17805285Y10699220D01*
X17805293Y10699219D01*
X17809369Y10698482D01*
X17827759Y10697615D01*
X17832944Y10697370D01*
X17832951Y10697370D01*
X17834432Y10697300D01*
X22197920Y10697300D01*
X22266041Y10677298D01*
X22287015Y10660395D01*
X22999588Y9947822D01*
X23013532Y9940208D01*
X23015365Y9940339D01*
X23021980Y9944590D01*
X23727477Y10650087D01*
X23733907Y10661862D01*
X23724610Y10673878D01*
X23715833Y10680024D01*
X23671505Y10735481D01*
X23664197Y10806101D01*
X23696229Y10869461D01*
X23716285Y10886763D01*
X23796418Y10942354D01*
X23797872Y10943348D01*
X23883734Y11001153D01*
X23888162Y11004134D01*
X23892026Y11007820D01*
X23896180Y11011160D01*
X23896377Y11010915D01*
X23896991Y11011416D01*
X23896799Y11011658D01*
X23900044Y11014241D01*
X23903457Y11016609D01*
X23906529Y11019404D01*
X23920910Y11032489D01*
X23920922Y11032501D01*
X23922015Y11033495D01*
X23928805Y11040285D01*
X23991117Y11074311D01*
X24061932Y11069246D01*
X24118768Y11026699D01*
X24143579Y10960179D01*
X24143900Y10951190D01*
X24143900Y10396724D01*
X24123898Y10328603D01*
X24098165Y10305023D01*
X24099499Y10303689D01*
X23384422Y9588612D01*
X23376808Y9574668D01*
X23376939Y9572835D01*
X23381190Y9566220D01*
X24099499Y8847911D01*
X24097592Y8846004D01*
X24128487Y8815110D01*
X24143900Y8754723D01*
X24143900Y7090481D01*
X24143585Y7081582D01*
X24138946Y7016063D01*
X24139472Y7010747D01*
X24141472Y6990524D01*
X24142049Y6975155D01*
X24141445Y6949502D01*
X24151992Y6877643D01*
X24152874Y6870023D01*
X24159017Y6797625D01*
X24160359Y6792455D01*
X24161120Y6788003D01*
X24161953Y6783506D01*
X24162479Y6778193D01*
X24163892Y6773047D01*
X24169272Y6753445D01*
X24172430Y6738393D01*
X24176157Y6713004D01*
X24177813Y6707924D01*
X24177813Y6707922D01*
X24198659Y6643953D01*
X24200819Y6636568D01*
X24219068Y6566260D01*
X24221264Y6561386D01*
X24222806Y6557008D01*
X24224342Y6552832D01*
X24225754Y6547689D01*
X24236625Y6524429D01*
X24242268Y6510138D01*
X24248566Y6490811D01*
X24248569Y6490803D01*
X24250220Y6485738D01*
X24252702Y6481021D01*
X24284039Y6421458D01*
X24287412Y6414542D01*
X24317243Y6348320D01*
X24320222Y6343895D01*
X24322442Y6339906D01*
X24324704Y6335972D01*
X24326962Y6331142D01*
X24330002Y6326760D01*
X24330003Y6326758D01*
X24341589Y6310057D01*
X24349562Y6296919D01*
X24361516Y6274198D01*
X24389540Y6237610D01*
X24405687Y6216528D01*
X24410172Y6210287D01*
X24450734Y6150038D01*
X24454416Y6146178D01*
X24457760Y6142019D01*
X24457516Y6141823D01*
X24458016Y6141209D01*
X24458258Y6141401D01*
X24460841Y6138156D01*
X24463209Y6134743D01*
X24466002Y6131673D01*
X24466004Y6131671D01*
X24479089Y6117290D01*
X24479101Y6117278D01*
X24480095Y6116185D01*
X24484674Y6111606D01*
X24495608Y6099128D01*
X24506863Y6084434D01*
X24510770Y6080810D01*
X24510778Y6080801D01*
X24560129Y6035023D01*
X24565583Y6029646D01*
X24615726Y5977082D01*
X24621914Y5972478D01*
X24635796Y5960484D01*
X25491763Y5104517D01*
X25497834Y5098002D01*
X25536714Y5053197D01*
X25540892Y5048382D01*
X25545018Y5044999D01*
X25545022Y5044995D01*
X25585295Y5011974D01*
X25625039Y4979385D01*
X25626291Y4978344D01*
X25709544Y4908115D01*
X25714142Y4905412D01*
X25717862Y4902778D01*
X25721615Y4900199D01*
X25725732Y4896823D01*
X25730356Y4894191D01*
X25730363Y4894186D01*
X25820297Y4842993D01*
X25821770Y4842141D01*
X25851857Y4824454D01*
X25910999Y4789686D01*
X25911002Y4789685D01*
X25915606Y4786978D01*
X25920603Y4785085D01*
X25924760Y4783093D01*
X25928828Y4781213D01*
X25933465Y4778574D01*
X26000876Y4754105D01*
X26035733Y4741453D01*
X26037383Y4740841D01*
X26139133Y4702291D01*
X26144373Y4701268D01*
X26148734Y4700025D01*
X26153138Y4698837D01*
X26158152Y4697017D01*
X26163401Y4696068D01*
X26163404Y4696067D01*
X26265173Y4677664D01*
X26266901Y4677339D01*
X26368495Y4657499D01*
X26368503Y4657498D01*
X26373732Y4656477D01*
X26379062Y4656352D01*
X26384372Y4655775D01*
X26384331Y4655398D01*
X26385109Y4655319D01*
X26385151Y4655691D01*
X26389279Y4655223D01*
X26393368Y4654483D01*
X26397522Y4654287D01*
X26397523Y4654287D01*
X26416943Y4653371D01*
X26416950Y4653371D01*
X26418431Y4653301D01*
X26507005Y4653301D01*
X26509974Y4653266D01*
X26612697Y4650845D01*
X26618981Y4651767D01*
X26620329Y4651965D01*
X26638626Y4653301D01*
X30317030Y4653301D01*
X30319999Y4653266D01*
X30422697Y4650846D01*
X30428988Y4651769D01*
X30430322Y4651965D01*
X30448619Y4653301D01*
X38836985Y4653301D01*
X38905106Y4633299D01*
X38951599Y4579643D01*
X38961703Y4509369D01*
X38941750Y4457299D01*
X38832285Y4293473D01*
X38701341Y4027945D01*
X38606176Y3747597D01*
X38548417Y3457226D01*
X38529054Y3161800D01*
X38548417Y2866374D01*
X38606176Y2576003D01*
X38701341Y2295655D01*
X38832285Y2030127D01*
X38996767Y1783962D01*
X38999481Y1780868D01*
X38999485Y1780862D01*
X39189264Y1564462D01*
X39191973Y1561373D01*
X39195062Y1558664D01*
X39411462Y1368885D01*
X39411468Y1368881D01*
X39414562Y1366167D01*
X39417988Y1363878D01*
X39417993Y1363874D01*
X39601805Y1241056D01*
X39660727Y1201685D01*
X39664426Y1199861D01*
X39664431Y1199858D01*
X39800713Y1132652D01*
X39926255Y1070741D01*
X39930160Y1069416D01*
X39930161Y1069415D01*
X40202690Y976904D01*
X40202694Y976903D01*
X40206603Y975576D01*
X40210647Y974772D01*
X40210653Y974770D01*
X40408685Y935379D01*
X40471594Y902471D01*
X40506726Y840776D01*
X40502926Y769881D01*
X40461400Y712295D01*
X40395333Y686301D01*
X40384103Y685800D01*
X634500Y685800D01*
X566379Y705802D01*
X519886Y759458D01*
X508500Y811800D01*
X508500Y8489738D01*
X22290893Y8489738D01*
X22300189Y8477723D01*
X22351394Y8441869D01*
X22360889Y8436386D01*
X22558347Y8344310D01*
X22568639Y8340564D01*
X22779088Y8284175D01*
X22789881Y8282272D01*
X23006925Y8263283D01*
X23017875Y8263283D01*
X23234919Y8282272D01*
X23245712Y8284175D01*
X23456161Y8340564D01*
X23466453Y8344310D01*
X23663911Y8436386D01*
X23673406Y8441869D01*
X23725448Y8478309D01*
X23733824Y8488788D01*
X23726756Y8502234D01*
X23025212Y9203778D01*
X23011268Y9211392D01*
X23009435Y9211261D01*
X23002820Y9207010D01*
X22297323Y8501513D01*
X22290893Y8489738D01*
X508500Y8489738D01*
X508500Y9570325D01*
X21699883Y9570325D01*
X21718872Y9353281D01*
X21720775Y9342488D01*
X21777164Y9132039D01*
X21780910Y9121747D01*
X21872986Y8924289D01*
X21878469Y8914794D01*
X21914909Y8862752D01*
X21925388Y8854376D01*
X21938834Y8861444D01*
X22640378Y9562988D01*
X22647992Y9576932D01*
X22647861Y9578765D01*
X22643610Y9585380D01*
X21938113Y10290877D01*
X21926338Y10297307D01*
X21914323Y10288011D01*
X21878469Y10236806D01*
X21872986Y10227311D01*
X21780910Y10029853D01*
X21777164Y10019561D01*
X21720775Y9809112D01*
X21718872Y9798319D01*
X21699883Y9581275D01*
X21699883Y9570325D01*
X508500Y9570325D01*
X508500Y11839278D01*
X9039673Y11839278D01*
X9087164Y11662039D01*
X9090910Y11651747D01*
X9182986Y11454289D01*
X9188469Y11444793D01*
X9313428Y11266333D01*
X9320484Y11257925D01*
X9474525Y11103884D01*
X9482933Y11096828D01*
X9661393Y10971869D01*
X9670889Y10966386D01*
X9868347Y10874310D01*
X9878639Y10870564D01*
X10050903Y10824406D01*
X10064999Y10824742D01*
X10068400Y10832684D01*
X10068400Y10837833D01*
X10576400Y10837833D01*
X10580373Y10824302D01*
X10588922Y10823073D01*
X10766161Y10870564D01*
X10776453Y10874310D01*
X10973911Y10966386D01*
X10983407Y10971869D01*
X11161867Y11096828D01*
X11170275Y11103884D01*
X11324316Y11257925D01*
X11331372Y11266333D01*
X11456331Y11444793D01*
X11461814Y11454289D01*
X11553890Y11651747D01*
X11557636Y11662039D01*
X11603794Y11834303D01*
X11603458Y11848399D01*
X11595516Y11851800D01*
X10594515Y11851800D01*
X10579276Y11847325D01*
X10578071Y11845935D01*
X10576400Y11838252D01*
X10576400Y10837833D01*
X10068400Y10837833D01*
X10068400Y11833685D01*
X10063925Y11848924D01*
X10062535Y11850129D01*
X10054852Y11851800D01*
X9054433Y11851800D01*
X9040902Y11847827D01*
X9039673Y11839278D01*
X508500Y11839278D01*
X508500Y20986063D01*
X1278946Y20986063D01*
X1279472Y20980750D01*
X1279472Y20980749D01*
X1289654Y20877821D01*
X1289815Y20876070D01*
X1292257Y20847298D01*
X1299017Y20767625D01*
X1300359Y20762455D01*
X1301125Y20757974D01*
X1301954Y20753502D01*
X1302479Y20748193D01*
X1331274Y20643299D01*
X1331722Y20641620D01*
X1359068Y20536260D01*
X1361262Y20531391D01*
X1362784Y20527068D01*
X1364342Y20522834D01*
X1365754Y20517689D01*
X1410298Y20422381D01*
X1411815Y20419136D01*
X1412547Y20417541D01*
X1457243Y20318320D01*
X1460223Y20313893D01*
X1462437Y20309915D01*
X1464704Y20305973D01*
X1466962Y20301142D01*
X1470001Y20296762D01*
X1470004Y20296756D01*
X1528954Y20211782D01*
X1529948Y20210328D01*
X1590734Y20120038D01*
X1594420Y20116174D01*
X1597760Y20112020D01*
X1597515Y20111823D01*
X1598016Y20111209D01*
X1598258Y20111401D01*
X1600841Y20108156D01*
X1603209Y20104743D01*
X1606002Y20101673D01*
X1606004Y20101671D01*
X1619089Y20087290D01*
X1619101Y20087278D01*
X1620095Y20086185D01*
X1682715Y20023565D01*
X1684790Y20021442D01*
X1755726Y19947082D01*
X1760004Y19943899D01*
X1761914Y19942478D01*
X1775796Y19930484D01*
X5477764Y16228516D01*
X5483835Y16222001D01*
X5513175Y16188190D01*
X5526893Y16172381D01*
X5611040Y16103385D01*
X5612291Y16102345D01*
X5695544Y16032114D01*
X5700151Y16029406D01*
X5703803Y16026820D01*
X5707607Y16024205D01*
X5711733Y16020822D01*
X5716363Y16018186D01*
X5716368Y16018183D01*
X5806262Y15967012D01*
X5807783Y15966132D01*
X5901607Y15910977D01*
X5906598Y15909086D01*
X5910735Y15907104D01*
X5914829Y15905212D01*
X5919466Y15902573D01*
X5935338Y15896812D01*
X6021734Y15865452D01*
X6023384Y15864840D01*
X6125134Y15826290D01*
X6130374Y15825267D01*
X6134735Y15824024D01*
X6139139Y15822836D01*
X6144153Y15821016D01*
X6149402Y15820067D01*
X6149405Y15820066D01*
X6251174Y15801663D01*
X6252902Y15801338D01*
X6354496Y15781498D01*
X6354504Y15781497D01*
X6359733Y15780476D01*
X6365063Y15780351D01*
X6370373Y15779774D01*
X6370332Y15779397D01*
X6371110Y15779318D01*
X6371152Y15779690D01*
X6375280Y15779222D01*
X6379369Y15778482D01*
X6383523Y15778286D01*
X6383524Y15778286D01*
X6402944Y15777370D01*
X6402951Y15777370D01*
X6404432Y15777300D01*
X6493031Y15777300D01*
X6496000Y15777265D01*
X6598698Y15774845D01*
X6604989Y15775768D01*
X6606323Y15775964D01*
X6624620Y15777300D01*
X9299212Y15777300D01*
X9367333Y15757298D01*
X9413826Y15703642D01*
X9423930Y15633368D01*
X9394436Y15568788D01*
X9388307Y15562205D01*
X9316202Y15490100D01*
X9184877Y15302549D01*
X9182554Y15297567D01*
X9182551Y15297562D01*
X9124246Y15172525D01*
X9088116Y15095043D01*
X9028857Y14873887D01*
X9008902Y14645800D01*
X9028857Y14417713D01*
X9030281Y14412400D01*
X9030281Y14412398D01*
X9076586Y14239589D01*
X9088116Y14196557D01*
X9090439Y14191576D01*
X9090439Y14191575D01*
X9182551Y13994038D01*
X9182554Y13994033D01*
X9184877Y13989051D01*
X9258302Y13884189D01*
X9311030Y13808887D01*
X9316202Y13801500D01*
X9478100Y13639602D01*
X9482608Y13636445D01*
X9482611Y13636443D01*
X9538825Y13597082D01*
X9665651Y13508277D01*
X9670633Y13505954D01*
X9670638Y13505951D01*
X9705449Y13489719D01*
X9758734Y13442802D01*
X9778195Y13374525D01*
X9757653Y13306565D01*
X9705449Y13261329D01*
X9670889Y13245214D01*
X9661393Y13239731D01*
X9482933Y13114772D01*
X9474525Y13107716D01*
X9320484Y12953675D01*
X9313428Y12945267D01*
X9188469Y12766807D01*
X9182986Y12757311D01*
X9090910Y12559853D01*
X9087164Y12549561D01*
X9041006Y12377297D01*
X9041342Y12363201D01*
X9049284Y12359800D01*
X11590367Y12359800D01*
X11603898Y12363773D01*
X11605127Y12372322D01*
X11557636Y12549561D01*
X11553890Y12559853D01*
X11461814Y12757311D01*
X11456331Y12766807D01*
X11331372Y12945267D01*
X11324316Y12953675D01*
X11170275Y13107716D01*
X11161867Y13114772D01*
X10983407Y13239731D01*
X10973911Y13245214D01*
X10939351Y13261329D01*
X10886066Y13308246D01*
X10866605Y13376523D01*
X10887147Y13444483D01*
X10939351Y13489719D01*
X10974162Y13505951D01*
X10974167Y13505954D01*
X10979149Y13508277D01*
X11105975Y13597082D01*
X11162189Y13636443D01*
X11162192Y13636445D01*
X11166700Y13639602D01*
X11328598Y13801500D01*
X11333771Y13808887D01*
X11386498Y13884189D01*
X11459923Y13989051D01*
X11462246Y13994033D01*
X11462249Y13994038D01*
X11554361Y14191575D01*
X11554361Y14191576D01*
X11556684Y14196557D01*
X11568215Y14239589D01*
X11614519Y14412398D01*
X11614519Y14412400D01*
X11615943Y14417713D01*
X11635898Y14645800D01*
X11615943Y14873887D01*
X11556684Y15095043D01*
X11520554Y15172525D01*
X11462249Y15297562D01*
X11462246Y15297567D01*
X11459923Y15302549D01*
X11328598Y15490100D01*
X11166700Y15651998D01*
X11162192Y15655155D01*
X11162189Y15655157D01*
X11035615Y15743785D01*
X11022703Y15752826D01*
X10978376Y15808282D01*
X10971067Y15878901D01*
X11003098Y15942262D01*
X11024608Y15960558D01*
X11132011Y16032866D01*
X11208162Y16084134D01*
X11227219Y16102313D01*
X11304896Y16176414D01*
X11381118Y16249126D01*
X11523802Y16440900D01*
X11632133Y16653972D01*
X11667575Y16768112D01*
X11701432Y16877149D01*
X11701433Y16877155D01*
X11703016Y16882252D01*
X11719906Y17009683D01*
X11733723Y17113927D01*
X11733723Y17113931D01*
X11734423Y17119211D01*
X11725455Y17358074D01*
X11699811Y17480293D01*
X11677467Y17586784D01*
X11677466Y17586787D01*
X11676370Y17592011D01*
X11588571Y17814333D01*
X11464568Y18018683D01*
X11407991Y18083882D01*
X11311407Y18195186D01*
X11311405Y18195188D01*
X11307907Y18199219D01*
X11265241Y18234203D01*
X11225249Y18292860D01*
X11223317Y18363830D01*
X11260061Y18424579D01*
X11300904Y18449617D01*
X11360697Y18472033D01*
X11369105Y18475185D01*
X11485661Y18562539D01*
X11573015Y18679095D01*
X11624145Y18815484D01*
X11630900Y18877666D01*
X11630900Y19176712D01*
X11641307Y19226854D01*
X11660033Y19270022D01*
X11660035Y19270027D01*
X11662158Y19274922D01*
X11711898Y19478193D01*
X11717704Y19501919D01*
X11717705Y19501925D01*
X11718972Y19507103D01*
X11724748Y19588685D01*
X11735477Y19740209D01*
X11735477Y19740212D01*
X11735854Y19745537D01*
X11721512Y19890505D01*
X11720900Y19902910D01*
X11720900Y20951119D01*
X11721215Y20960018D01*
X11725477Y21020209D01*
X11725477Y21020212D01*
X11725854Y21025537D01*
X11719234Y21092450D01*
X11715146Y21133779D01*
X11714985Y21135530D01*
X11708857Y21207744D01*
X11705783Y21243975D01*
X11704441Y21249145D01*
X11703675Y21253626D01*
X11702846Y21258098D01*
X11702321Y21263407D01*
X11673511Y21368358D01*
X11673072Y21370002D01*
X11664259Y21403958D01*
X11645732Y21475340D01*
X11643538Y21480209D01*
X11642016Y21484532D01*
X11640458Y21488766D01*
X11639046Y21493911D01*
X11592983Y21592469D01*
X11592251Y21594063D01*
X11547557Y21693280D01*
X11544577Y21697707D01*
X11542363Y21701685D01*
X11540096Y21705627D01*
X11537838Y21710458D01*
X11534799Y21714838D01*
X11534796Y21714844D01*
X11475846Y21799818D01*
X11474852Y21801272D01*
X11417047Y21887134D01*
X11414066Y21891562D01*
X11410380Y21895426D01*
X11407040Y21899580D01*
X11407285Y21899777D01*
X11406786Y21900389D01*
X11406544Y21900196D01*
X11403963Y21903437D01*
X11401591Y21906857D01*
X11384704Y21925415D01*
X11322105Y21988014D01*
X11320030Y21990137D01*
X11252758Y22060656D01*
X11249074Y22064518D01*
X11242881Y22069126D01*
X11228999Y22081120D01*
X9217805Y24092315D01*
X9183779Y24154627D01*
X9180900Y24181410D01*
X9180900Y25984314D01*
X9181992Y26000870D01*
X9183723Y26013928D01*
X9183723Y26013931D01*
X9184423Y26019211D01*
X9180989Y26110676D01*
X9180900Y26115402D01*
X9180900Y26269738D01*
X22290893Y26269738D01*
X22300189Y26257723D01*
X22351394Y26221869D01*
X22360889Y26216386D01*
X22558347Y26124310D01*
X22568639Y26120564D01*
X22779088Y26064175D01*
X22789881Y26062272D01*
X23006925Y26043283D01*
X23017875Y26043283D01*
X23234919Y26062272D01*
X23245712Y26064175D01*
X23456161Y26120564D01*
X23466453Y26124310D01*
X23663911Y26216386D01*
X23673406Y26221869D01*
X23725448Y26258309D01*
X23733824Y26268788D01*
X23726756Y26282234D01*
X23025212Y26983778D01*
X23011268Y26991392D01*
X23009435Y26991261D01*
X23002820Y26987010D01*
X22297323Y26281513D01*
X22290893Y26269738D01*
X9180900Y26269738D01*
X9180900Y27350325D01*
X21699883Y27350325D01*
X21718872Y27133281D01*
X21720775Y27122488D01*
X21777164Y26912039D01*
X21780910Y26901747D01*
X21872986Y26704289D01*
X21878469Y26694794D01*
X21914909Y26642752D01*
X21925388Y26634376D01*
X21938834Y26641444D01*
X22640378Y27342988D01*
X22646756Y27354668D01*
X23376808Y27354668D01*
X23376939Y27352835D01*
X23381190Y27346220D01*
X24086687Y26640723D01*
X24098462Y26634293D01*
X24110477Y26643589D01*
X24146331Y26694794D01*
X24151814Y26704289D01*
X24243890Y26901747D01*
X24247636Y26912039D01*
X24304025Y27122488D01*
X24305928Y27133281D01*
X24324917Y27350325D01*
X24324917Y27361275D01*
X24305928Y27578319D01*
X24304025Y27589112D01*
X24247636Y27799561D01*
X24243890Y27809853D01*
X24151814Y28007311D01*
X24146331Y28016806D01*
X24109891Y28068848D01*
X24099412Y28077224D01*
X24085966Y28070156D01*
X23384422Y27368612D01*
X23376808Y27354668D01*
X22646756Y27354668D01*
X22647992Y27356932D01*
X22647861Y27358765D01*
X22643610Y27365380D01*
X21938113Y28070877D01*
X21926338Y28077307D01*
X21914323Y28068011D01*
X21878469Y28016806D01*
X21872986Y28007311D01*
X21780910Y27809853D01*
X21777164Y27799561D01*
X21720775Y27589112D01*
X21718872Y27578319D01*
X21699883Y27361275D01*
X21699883Y27350325D01*
X9180900Y27350325D01*
X9180900Y28873319D01*
X9200902Y28941440D01*
X9254558Y28987933D01*
X9324832Y28998037D01*
X9389412Y28968543D01*
X9395995Y28962414D01*
X9464525Y28893884D01*
X9472933Y28886828D01*
X9651393Y28761869D01*
X9660889Y28756386D01*
X9858347Y28664310D01*
X9868639Y28660564D01*
X10040903Y28614406D01*
X10054999Y28614742D01*
X10058400Y28622684D01*
X10058400Y28627833D01*
X10566400Y28627833D01*
X10570373Y28614302D01*
X10578922Y28613073D01*
X10756161Y28660564D01*
X10766453Y28664310D01*
X10963911Y28756386D01*
X10973407Y28761869D01*
X11151867Y28886828D01*
X11160275Y28893884D01*
X11314316Y29047925D01*
X11321372Y29056333D01*
X11446331Y29234793D01*
X11451814Y29244289D01*
X11543890Y29441747D01*
X11547636Y29452039D01*
X11593794Y29624303D01*
X11593458Y29638399D01*
X11585516Y29641800D01*
X10584515Y29641800D01*
X10569276Y29637325D01*
X10568071Y29635935D01*
X10566400Y29628252D01*
X10566400Y28627833D01*
X10058400Y28627833D01*
X10058400Y30023800D01*
X10078402Y30091921D01*
X10132058Y30138414D01*
X10184400Y30149800D01*
X11580367Y30149800D01*
X11593898Y30153773D01*
X11595127Y30162322D01*
X11547636Y30339561D01*
X11543890Y30349853D01*
X11451814Y30547311D01*
X11446331Y30556807D01*
X11321372Y30735267D01*
X11314316Y30743675D01*
X11160275Y30897716D01*
X11151867Y30904772D01*
X10973407Y31029731D01*
X10963911Y31035214D01*
X10929351Y31051329D01*
X10876066Y31098246D01*
X10856605Y31166523D01*
X10877147Y31234483D01*
X10929351Y31279719D01*
X10964162Y31295951D01*
X10964167Y31295954D01*
X10969149Y31298277D01*
X11081694Y31377082D01*
X11152189Y31426443D01*
X11152192Y31426445D01*
X11156700Y31429602D01*
X11318598Y31591500D01*
X11323771Y31598887D01*
X11416405Y31731183D01*
X11449923Y31779051D01*
X11452246Y31784033D01*
X11452249Y31784038D01*
X11544361Y31981575D01*
X11544361Y31981576D01*
X11546684Y31986557D01*
X11558215Y32029589D01*
X11604519Y32202398D01*
X11604519Y32202400D01*
X11605943Y32207713D01*
X11625898Y32435800D01*
X11605943Y32663887D01*
X11546684Y32885043D01*
X11510554Y32962525D01*
X11452249Y33087562D01*
X11452246Y33087567D01*
X11449923Y33092549D01*
X11318598Y33280100D01*
X11246493Y33352205D01*
X11212467Y33414517D01*
X11217532Y33485332D01*
X11260079Y33542168D01*
X11326599Y33566979D01*
X11335588Y33567300D01*
X11527719Y33567300D01*
X11536618Y33566985D01*
X11596809Y33562723D01*
X11596812Y33562723D01*
X11602137Y33562346D01*
X11654839Y33567560D01*
X11710379Y33573054D01*
X11712130Y33573215D01*
X11756352Y33576968D01*
X11820575Y33582417D01*
X11825745Y33583759D01*
X11830226Y33584525D01*
X11834698Y33585354D01*
X11840007Y33585879D01*
X11944958Y33614689D01*
X11946580Y33615122D01*
X12051940Y33642468D01*
X12056809Y33644662D01*
X12061132Y33646184D01*
X12065366Y33647742D01*
X12070511Y33649154D01*
X12169069Y33695217D01*
X12170663Y33695949D01*
X12194214Y33706558D01*
X12269880Y33740643D01*
X12274307Y33743623D01*
X12278285Y33745837D01*
X12282227Y33748104D01*
X12287058Y33750362D01*
X12291438Y33753401D01*
X12291444Y33753404D01*
X12376418Y33812354D01*
X12377872Y33813348D01*
X12463734Y33871153D01*
X12468162Y33874134D01*
X12472026Y33877820D01*
X12476180Y33881160D01*
X12476377Y33880915D01*
X12476991Y33881416D01*
X12476799Y33881658D01*
X12480044Y33884241D01*
X12483457Y33886609D01*
X12492845Y33895151D01*
X12500910Y33902489D01*
X12500922Y33902501D01*
X12502015Y33903495D01*
X12564635Y33966115D01*
X12566758Y33968190D01*
X12637261Y34035447D01*
X12641118Y34039126D01*
X12645722Y34045314D01*
X12657716Y34059196D01*
X13809684Y35211164D01*
X13816199Y35217235D01*
X13861786Y35256793D01*
X13861788Y35256795D01*
X13865819Y35260293D01*
X13934815Y35344440D01*
X13935887Y35345729D01*
X14002641Y35424860D01*
X14002642Y35424861D01*
X14006086Y35428944D01*
X14008794Y35433551D01*
X14011380Y35437203D01*
X14013995Y35441007D01*
X14017378Y35445133D01*
X14020014Y35449763D01*
X14020017Y35449768D01*
X14071188Y35539662D01*
X14072068Y35541183D01*
X14124519Y35630407D01*
X14124520Y35630408D01*
X14127223Y35635007D01*
X14129114Y35639998D01*
X14131096Y35644135D01*
X14132988Y35648229D01*
X14135627Y35652866D01*
X14172748Y35755134D01*
X14173360Y35756784D01*
X14196286Y35817296D01*
X14211910Y35858534D01*
X14212933Y35863774D01*
X14214176Y35868135D01*
X14215364Y35872539D01*
X14217184Y35877553D01*
X14232330Y35961307D01*
X14236537Y35984574D01*
X14236862Y35986302D01*
X14256702Y36087896D01*
X14256703Y36087904D01*
X14257724Y36093133D01*
X14257849Y36098463D01*
X14258426Y36103773D01*
X14258803Y36103732D01*
X14258882Y36104510D01*
X14258510Y36104552D01*
X14258978Y36108680D01*
X14259718Y36112769D01*
X14260049Y36119795D01*
X14260830Y36136344D01*
X14260830Y36136351D01*
X14260900Y36137832D01*
X14260900Y36226431D01*
X14260935Y36229399D01*
X14261571Y36256384D01*
X14263355Y36332098D01*
X14262236Y36339723D01*
X14260900Y36358020D01*
X14260900Y42541119D01*
X14261215Y42550018D01*
X14265477Y42610209D01*
X14265477Y42610212D01*
X14265854Y42615537D01*
X14257631Y42698656D01*
X14255146Y42723779D01*
X14254985Y42725530D01*
X14246234Y42828656D01*
X14245783Y42833975D01*
X14244441Y42839145D01*
X14243675Y42843626D01*
X14242846Y42848098D01*
X14242321Y42853407D01*
X14213511Y42958358D01*
X14213072Y42960002D01*
X14210720Y42969063D01*
X14185732Y43065340D01*
X14183538Y43070209D01*
X14182016Y43074532D01*
X14180458Y43078766D01*
X14179046Y43083911D01*
X14132983Y43182469D01*
X14132251Y43184063D01*
X14106010Y43242315D01*
X14087557Y43283280D01*
X14084577Y43287707D01*
X14082363Y43291685D01*
X14080096Y43295627D01*
X14077838Y43300458D01*
X14074799Y43304838D01*
X14074796Y43304844D01*
X14015846Y43389818D01*
X14014852Y43391272D01*
X13957047Y43477134D01*
X13954066Y43481562D01*
X13950380Y43485426D01*
X13947040Y43489580D01*
X13947285Y43489777D01*
X13946786Y43490389D01*
X13946544Y43490196D01*
X13943963Y43493437D01*
X13941591Y43496857D01*
X13924704Y43515415D01*
X13862105Y43578014D01*
X13860030Y43580137D01*
X13823745Y43618173D01*
X13789074Y43654518D01*
X13782881Y43659126D01*
X13768999Y43671120D01*
X11347029Y46093091D01*
X11340959Y46099606D01*
X11301411Y46145181D01*
X11297907Y46149219D01*
X11293781Y46152602D01*
X11293776Y46152607D01*
X11248312Y46189884D01*
X11213760Y46218216D01*
X11212508Y46219257D01*
X11129255Y46289486D01*
X11124657Y46292189D01*
X11120937Y46294823D01*
X11117184Y46297402D01*
X11113067Y46300778D01*
X11108443Y46303410D01*
X11108436Y46303415D01*
X11018502Y46354608D01*
X11017029Y46355460D01*
X10962001Y46387809D01*
X10927800Y46407915D01*
X10927797Y46407916D01*
X10923193Y46410623D01*
X10918196Y46412516D01*
X10914039Y46414508D01*
X10909971Y46416388D01*
X10905334Y46419027D01*
X10803066Y46456148D01*
X10801416Y46456760D01*
X10765224Y46470472D01*
X10699666Y46495310D01*
X10694426Y46496333D01*
X10690065Y46497576D01*
X10685661Y46498764D01*
X10680647Y46500584D01*
X10675398Y46501533D01*
X10675395Y46501534D01*
X10573626Y46519937D01*
X10571898Y46520262D01*
X10470304Y46540102D01*
X10470296Y46540103D01*
X10465067Y46541124D01*
X10459737Y46541249D01*
X10454427Y46541826D01*
X10454468Y46542203D01*
X10453690Y46542282D01*
X10453648Y46541910D01*
X10449520Y46542378D01*
X10445431Y46543118D01*
X10441277Y46543314D01*
X10441276Y46543314D01*
X10421856Y46544230D01*
X10421849Y46544230D01*
X10420368Y46544300D01*
X10331769Y46544300D01*
X10328801Y46544335D01*
X10325893Y46544404D01*
X10226102Y46546755D01*
X10219811Y46545832D01*
X10218477Y46545636D01*
X10200180Y46544300D01*
X5926448Y46544300D01*
X5917549Y46544615D01*
X5857358Y46548877D01*
X5857355Y46548877D01*
X5852030Y46549254D01*
X5799328Y46544040D01*
X5743788Y46538546D01*
X5742037Y46538385D01*
X5697815Y46534632D01*
X5633592Y46529183D01*
X5628422Y46527841D01*
X5623941Y46527075D01*
X5619469Y46526246D01*
X5614160Y46525721D01*
X5509209Y46496911D01*
X5507587Y46496478D01*
X5402227Y46469132D01*
X5397358Y46466938D01*
X5393035Y46465416D01*
X5388801Y46463858D01*
X5383656Y46462446D01*
X5370823Y46456448D01*
X5285103Y46416385D01*
X5283508Y46415653D01*
X5184287Y46370957D01*
X5179860Y46367977D01*
X5175882Y46365763D01*
X5171940Y46363496D01*
X5167109Y46361238D01*
X5162729Y46358199D01*
X5162723Y46358196D01*
X5077749Y46299246D01*
X5076295Y46298252D01*
X4986005Y46237466D01*
X4982141Y46233780D01*
X4977987Y46230440D01*
X4977790Y46230685D01*
X4977176Y46230184D01*
X4977368Y46229942D01*
X4974123Y46227359D01*
X4970710Y46224991D01*
X4967640Y46222198D01*
X4967638Y46222196D01*
X4953257Y46209111D01*
X4953245Y46209099D01*
X4952152Y46208105D01*
X4889532Y46145485D01*
X4887409Y46143410D01*
X4813049Y46072474D01*
X4809866Y46068196D01*
X4808445Y46066286D01*
X4796451Y46052404D01*
X1735116Y42991069D01*
X1728601Y42984998D01*
X1698405Y42958795D01*
X1678981Y42941940D01*
X1675598Y42937814D01*
X1675594Y42937810D01*
X1673569Y42935340D01*
X1609984Y42857793D01*
X1608943Y42856541D01*
X1538714Y42773288D01*
X1536011Y42768690D01*
X1533377Y42764970D01*
X1530798Y42761217D01*
X1527422Y42757100D01*
X1524790Y42752476D01*
X1524785Y42752469D01*
X1473592Y42662535D01*
X1472740Y42661062D01*
X1469654Y42655812D01*
X1433187Y42593779D01*
X1417577Y42567226D01*
X1415684Y42562229D01*
X1413692Y42558072D01*
X1411812Y42554004D01*
X1409173Y42549367D01*
X1407353Y42544352D01*
X1372052Y42447099D01*
X1371440Y42445449D01*
X1332890Y42343699D01*
X1331867Y42338459D01*
X1330624Y42334098D01*
X1329436Y42329694D01*
X1327616Y42324680D01*
X1326667Y42319431D01*
X1326666Y42319428D01*
X1308263Y42217659D01*
X1307938Y42215931D01*
X1288098Y42114337D01*
X1288097Y42114329D01*
X1287076Y42109100D01*
X1286951Y42103770D01*
X1286374Y42098460D01*
X1285997Y42098501D01*
X1285918Y42097723D01*
X1286290Y42097681D01*
X1285822Y42093553D01*
X1285082Y42089464D01*
X1283900Y42064401D01*
X1283900Y41975802D01*
X1283865Y41972834D01*
X1281445Y41870135D01*
X1282221Y41864849D01*
X1282564Y41862510D01*
X1283900Y41844213D01*
X1283900Y28565788D01*
X1299017Y28387625D01*
X1359068Y28156260D01*
X1361260Y28151394D01*
X1421888Y28016806D01*
X1457243Y27938320D01*
X1590734Y27740038D01*
X1594413Y27736181D01*
X1594415Y27736179D01*
X1628746Y27700191D01*
X1755726Y27567082D01*
X1904991Y27456026D01*
X1947703Y27399317D01*
X1952976Y27328517D01*
X1919134Y27266105D01*
X1900144Y27250418D01*
X1806638Y27187466D01*
X1802781Y27183787D01*
X1802779Y27183785D01*
X1739003Y27122945D01*
X1633682Y27022474D01*
X1490998Y26830700D01*
X1488582Y26825949D01*
X1488580Y26825945D01*
X1421900Y26694794D01*
X1382667Y26617628D01*
X1353298Y26523044D01*
X1313368Y26394451D01*
X1313367Y26394445D01*
X1311784Y26389348D01*
X1302415Y26318662D01*
X1282282Y26166760D01*
X1280377Y26152389D01*
X1280577Y26147060D01*
X1280577Y26147059D01*
X1283605Y26066415D01*
X1289345Y25913526D01*
X1307581Y25826616D01*
X1328668Y25726116D01*
X1338430Y25679589D01*
X1426229Y25457267D01*
X1550232Y25252917D01*
X1706893Y25072381D01*
X1711019Y25068998D01*
X1711023Y25068994D01*
X1850989Y24954230D01*
X1891733Y24920822D01*
X1896329Y24918206D01*
X1941129Y24863151D01*
X1949055Y24792598D01*
X1917579Y24728960D01*
X1890319Y24706660D01*
X1864081Y24690738D01*
X1864077Y24690735D01*
X1859517Y24687968D01*
X1855487Y24684471D01*
X1741915Y24585918D01*
X1678981Y24531307D01*
X1675598Y24527181D01*
X1675594Y24527177D01*
X1600364Y24435427D01*
X1527422Y24346467D01*
X1409173Y24138734D01*
X1327616Y23914047D01*
X1326667Y23908798D01*
X1326666Y23908795D01*
X1285820Y23682915D01*
X1285819Y23682907D01*
X1285082Y23678831D01*
X1283900Y23653768D01*
X1283900Y21060481D01*
X1283585Y21051582D01*
X1278946Y20986063D01*
X508500Y20986063D01*
X508500Y47371500D01*
X528502Y47439621D01*
X582158Y47486114D01*
X634500Y47497500D01*
X69571100Y47497500D01*
X69639221Y47477498D01*
G37*
%TD.AperFunction*%
%TD*%
M02*
