M48
; DRILL file {KiCad (6.0.8)} date Sat Sep 30 23:17:11 2023
; FORMAT={-:-/ absolute / metric / decimal}
; #@! TF.CreationDate,2023-09-30T23:17:11+09:00
; #@! TF.GenerationSoftware,Kicad,Pcbnew,(6.0.8)
; #@! TF.FileFunction,MixedPlating,1,2
FMAT,2
METRIC
; #@! TA.AperFunction,Plated,PTH,ViaDrill
T1C0.400
; #@! TA.AperFunction,Plated,PTH,ComponentDrill
T2C0.800
; #@! TA.AperFunction,Plated,PTH,ComponentDrill
T3C1.100
; #@! TA.AperFunction,NonPlated,NPTH,ComponentDrill
T4C3.500
%
G90
G05
T1
X2.692Y28.626
X2.692Y26.086
X2.692Y23.546
X64.546Y40.442
X64.897Y24.816
T2
X7.772Y24.816
X9.042Y42.596
X10.312Y37.516
X10.312Y34.976
X10.312Y32.436
X10.312Y29.896
X10.322Y19.726
X10.322Y17.186
X10.322Y14.646
X10.322Y12.106
X17.932Y37.516
X17.932Y34.976
X17.932Y32.436
X17.932Y29.896
X17.932Y24.816
X17.942Y19.726
X17.942Y17.186
X17.942Y14.646
X17.942Y12.106
X19.202Y42.596
X23.012Y34.976
X23.012Y32.436
X23.012Y29.896
X23.012Y27.356
X23.012Y23.546
X23.012Y17.196
X23.012Y14.656
X23.012Y12.116
X23.012Y9.576
X25.012Y23.546
X25.613Y42.596
X27.613Y42.596
X33.172Y34.976
X33.172Y32.436
X33.172Y29.896
X33.172Y27.356
X33.172Y17.196
X33.172Y14.656
X33.172Y12.116
X33.172Y9.576
T3
X38.252Y34.89
X38.252Y19.822
X40.792Y34.89
X40.792Y19.822
X43.332Y34.89
X43.332Y19.822
X53.492Y34.89
X53.492Y19.822
X56.032Y34.89
X56.032Y19.822
X58.572Y34.89
X58.572Y19.822
T4
X40.792Y51.55
X40.792Y3.162
X56.032Y51.55
X56.032Y3.162
T0
M30
